<svg width="95" height="30" viewBox="0 0 95 30" fill="none" xmlns="http://www.w3.org/2000/svg">
<path d="M28.12 0.68V1.48C27.5333 1.69333 26.9067 2.16 26.24 2.88C25.6 3.6 25 4.72 24.44 6.24L16 29.08C15.7867 29.0533 15.56 29.04 15.32 29.04C15.08 29.04 14.84 29.04 14.6 29.04C14.3867 29.04 14.16 29.04 13.92 29.04C13.68 29.04 13.4533 29.0533 13.24 29.08L3.04 4.04C2.66667 3.08 2.25333 2.42667 1.8 2.08C1.34667 1.70667 0.92 1.50667 0.52 1.48V0.68C1.32 0.706666 2.25333 0.733332 3.32 0.759999C4.41333 0.786665 5.50667 0.799998 6.6 0.799998C7.82667 0.799998 8.97333 0.786665 10.04 0.759999C11.1333 0.733332 12.0133 0.706666 12.68 0.68V1.48C11.8267 1.50667 11.16 1.61333 10.68 1.8C10.2 1.96 9.93333 2.28 9.88 2.76C9.82667 3.21333 9.98667 3.90666 10.36 4.84L17.64 23.36L16.8 24.36L22.32 9.48C23.04 7.48 23.4133 5.90667 23.44 4.76C23.4667 3.61333 23.1867 2.78666 22.6 2.28C22.0133 1.77333 21.1733 1.50667 20.08 1.48V0.68C20.9867 0.706666 21.84 0.733332 22.64 0.759999C23.44 0.786665 24.2533 0.799998 25.08 0.799998C25.6667 0.799998 26.2133 0.786665 26.72 0.759999C27.2533 0.733332 27.72 0.706666 28.12 0.68ZM40.6453 0.599998C41.6853 0.599998 42.5253 0.679998 43.1653 0.839998C43.8053 0.973331 44.352 1.17333 44.8053 1.44C45.232 1.62667 45.6186 1.86667 45.9653 2.16C46.3386 2.45333 46.6453 2.81333 46.8853 3.24C47.1253 3.66667 47.2453 4.14667 47.2453 4.68C47.2453 5.48 46.9386 6.12 46.3253 6.6C45.712 7.08 44.992 7.32 44.1653 7.32C43.3653 7.32 42.672 7.12 42.0853 6.72C41.5253 6.32 41.2453 5.69333 41.2453 4.84C41.2453 4.17333 41.4853 3.57333 41.9653 3.04C42.4453 2.48 43.0586 2.13333 43.8053 2C43.6186 1.78667 43.272 1.61333 42.7653 1.48C42.2853 1.34667 41.752 1.28 41.1653 1.28C39.7786 1.28 38.592 1.72 37.6053 2.6C36.6453 3.45333 36.1653 4.76 36.1653 6.52C36.1653 7.13333 36.272 7.78667 36.4853 8.48C36.6986 9.17333 37.112 9.88 37.7253 10.6C38.1786 10.4933 38.592 10.4133 38.9653 10.36C39.3653 10.3067 39.6986 10.28 39.9653 10.28C40.4453 10.28 40.8053 10.3867 41.0453 10.6C41.312 10.7867 41.4453 11.04 41.4453 11.36C41.4453 11.6 41.3386 11.8 41.1253 11.96C40.912 12.12 40.6453 12.2 40.3253 12.2C39.872 12.2 39.4053 12.08 38.9253 11.84C38.4453 11.5733 38.0586 11.3467 37.7653 11.16C36.512 11.8 35.4853 12.6267 34.6853 13.64C33.912 14.6267 33.5253 15.96 33.5253 17.64C33.5253 19.4 34.0053 20.8533 34.9653 22C35.9253 23.12 37.272 23.9733 39.0053 24.56C40.7653 25.12 42.832 25.4 45.2053 25.4C46.5386 25.4 47.8586 25.2533 49.1653 24.96C50.472 24.6667 51.6453 24.2267 52.6853 23.64C53.752 23.0533 54.6053 22.3333 55.2453 21.48C55.8853 20.6 56.2053 19.5867 56.2053 18.44C56.2053 18.0133 56.1386 17.48 56.0053 16.84C55.8986 16.1733 55.6186 15.52 55.1653 14.88C54.712 14.2133 53.9653 13.6667 52.9253 13.24L53.2053 12.88C54.6453 13.3333 55.7386 14.1867 56.4853 15.44C57.232 16.6933 57.6053 18.1333 57.6053 19.76C57.6053 21.6267 57.032 23.3067 55.8853 24.8C54.7386 26.2667 53.1253 27.4267 51.0453 28.28C48.992 29.1333 46.5786 29.56 43.8053 29.56C41.592 29.56 39.5786 29.3333 37.7653 28.88C35.9786 28.4267 34.432 27.7733 33.1253 26.92C31.8453 26.04 30.8453 24.9867 30.1253 23.76C29.432 22.5333 29.0853 21.1467 29.0853 19.6C29.0853 18.1067 29.392 16.84 30.0053 15.8C30.6453 14.7333 31.4186 13.8667 32.3253 13.2C33.232 12.5067 34.1386 11.9733 35.0453 11.6C35.952 11.2267 36.672 10.9733 37.2053 10.84C36.3786 10.4933 35.6186 10.0933 34.9253 9.64C34.2586 9.16 33.712 8.6 33.2853 7.96C32.8853 7.32 32.6853 6.6 32.6853 5.8C32.6853 4.94666 32.912 4.2 33.3653 3.56C33.8186 2.89333 34.4186 2.34667 35.1653 1.92C35.9386 1.49333 36.792 1.17333 37.7253 0.959999C38.6853 0.719999 39.6586 0.599998 40.6453 0.599998ZM56.3653 0.119998C58.2586 0.119998 59.792 0.613331 60.9653 1.6C62.1386 2.58667 62.7253 3.97333 62.7253 5.76C62.7253 7.12 62.392 8.26667 61.7253 9.2C61.0853 10.1333 60.152 10.8933 58.9253 11.48C57.7253 12.0667 56.2853 12.5333 54.6053 12.88C54.232 13.0133 53.7653 13.1733 53.2053 13.36C52.6453 13.52 52.072 13.68 51.4853 13.84C50.8986 14 50.3253 14.16 49.7653 14.32C49.232 14.48 48.7653 14.6133 48.3653 14.72C46.2853 15.1733 44.6853 15.6933 43.5653 16.28C42.4453 16.84 41.8853 17.6133 41.8853 18.6C41.8853 19.2667 42.0986 19.84 42.5253 20.32C42.9786 20.8 43.5386 21.1733 44.2053 21.44C44.872 21.7067 45.5386 21.84 46.2053 21.84C46.392 21.84 46.592 21.8267 46.8053 21.8C47.0186 21.7467 47.2186 21.6933 47.4053 21.64C47.592 21.56 47.7253 21.4933 47.8053 21.44C47.1386 21.2267 46.632 20.8933 46.2853 20.44C45.9653 19.96 45.8053 19.4133 45.8053 18.8C45.8053 17.9467 46.112 17.2933 46.7253 16.84C47.3386 16.3867 48.0986 16.16 49.0053 16.16C49.9653 16.16 50.712 16.4133 51.2453 16.92C51.8053 17.4267 52.0853 18.08 52.0853 18.88C52.0853 19.7067 51.832 20.4 51.3253 20.96C50.8186 21.4933 50.1386 21.8933 49.2853 22.16C48.432 22.4 47.472 22.52 46.4053 22.52C45.3653 22.52 44.3786 22.3333 43.4453 21.96C42.5386 21.5867 41.8053 21.0267 41.2453 20.28C40.712 19.5067 40.4453 18.5467 40.4453 17.4C40.4453 15.9867 40.8053 14.8133 41.5253 13.88C42.2453 12.92 43.272 12.1333 44.6053 11.52C45.9653 10.88 47.5653 10.3867 49.4053 10.04C49.9653 9.90667 50.5786 9.76 51.2453 9.6C51.9386 9.41333 52.6453 9.22667 53.3653 9.04C54.0853 8.85333 54.752 8.65333 55.3653 8.44C57.2853 7.96 58.7653 7.42667 59.8053 6.84C60.872 6.25333 61.4053 5.46667 61.4053 4.48C61.4053 3.76 61.1786 3.13333 60.7253 2.6C60.2986 2.04 59.7386 1.61333 59.0453 1.32C58.352 0.999998 57.632 0.839998 56.8853 0.839998C56.6453 0.839998 56.4186 0.853332 56.2053 0.88C56.0186 0.906666 55.8586 0.959999 55.7253 1.04C56.392 1.28 56.8853 1.64 57.2053 2.12C57.5253 2.6 57.6853 3.08 57.6853 3.56C57.6853 4.38667 57.3786 5.02667 56.7653 5.48C56.152 5.90667 55.392 6.12 54.4853 6.12C53.5786 6.12 52.832 5.89333 52.2453 5.44C51.6586 4.96 51.3653 4.30667 51.3653 3.48C51.3653 2.76 51.5653 2.16 51.9653 1.68C52.392 1.17333 52.9786 0.786666 53.7253 0.52C54.472 0.253332 55.352 0.119998 56.3653 0.119998ZM81.7028 29V28.2C82.5561 28.1467 83.1961 28.04 83.6228 27.88C84.0495 27.72 84.3295 27.4 84.4628 26.92C84.6228 26.44 84.7028 25.72 84.7028 24.76V4.92C84.7028 3.93333 84.6228 3.21333 84.4628 2.76C84.3295 2.28 84.0361 1.96 83.5828 1.8C83.1561 1.61333 82.5295 1.50667 81.7028 1.48V0.68C82.4228 0.706666 83.3561 0.733332 84.5028 0.759999C85.6761 0.786665 86.8361 0.799998 87.9828 0.799998C89.2095 0.799998 90.3561 0.786665 91.4228 0.759999C92.5161 0.733332 93.3961 0.706666 94.0628 0.68V1.48C93.2095 1.50667 92.5561 1.61333 92.1028 1.8C91.6761 1.96 91.3961 2.28 91.2628 2.76C91.1295 3.21333 91.0628 3.93333 91.0628 4.92V24.76C91.0628 25.72 91.1295 26.44 91.2628 26.92C91.4228 27.4 91.7161 27.72 92.1428 27.88C92.5695 28.04 93.2095 28.1467 94.0628 28.2V29C93.3961 28.9467 92.5161 28.92 91.4228 28.92C90.3561 28.8933 89.2095 28.88 87.9828 28.88C86.8361 28.88 85.6761 28.8933 84.5028 28.92C83.3561 28.92 82.4228 28.9467 81.7028 29ZM64.7428 29V28.2C65.5961 28.1467 66.2361 28.04 66.6628 27.88C67.0895 27.72 67.3695 27.4 67.5028 26.92C67.6628 26.44 67.7428 25.72 67.7428 24.76V4.92C67.7428 3.93333 67.6628 3.21333 67.5028 2.76C67.3695 2.28 67.0761 1.96 66.6228 1.8C66.1961 1.61333 65.5695 1.50667 64.7428 1.48V0.68C65.4361 0.706666 66.3295 0.733332 67.4228 0.759999C68.5428 0.786665 69.7561 0.799998 71.0628 0.799998C72.1828 0.799998 73.2895 0.786665 74.3828 0.759999C75.4761 0.733332 76.3828 0.706666 77.1028 0.68V1.48C76.2495 1.50667 75.5961 1.61333 75.1428 1.8C74.7161 1.96 74.4361 2.28 74.3028 2.76C74.1695 3.21333 74.1028 3.93333 74.1028 4.92V24.76C74.1028 25.72 74.1695 26.44 74.3028 26.92C74.4628 27.4 74.7561 27.72 75.1828 27.88C75.6095 28.04 76.2495 28.1467 77.1028 28.2V29C76.3828 28.9467 75.4761 28.92 74.3828 28.92C73.2895 28.8933 72.1828 28.88 71.0628 28.88C69.7561 28.88 68.5428 28.8933 67.4228 28.92C66.3295 28.92 65.4361 28.9467 64.7428 29ZM71.5028 15.16V14.36H87.3028V15.16H71.5028Z" fill="#724D31"/>
</svg>
