<svg width="717" height="81" viewBox="0 0 717 81" fill="none" xmlns="http://www.w3.org/2000/svg">
<mask id="path-1-outside-1_1_652" maskUnits="userSpaceOnUse" x="0.039978" y="-0.559998" width="717" height="81" fill="black">
<rect fill="white" x="0.039978" y="-0.559998" width="717" height="81"/>
<path d="M56.24 7.36001V8.96001C55.0666 9.38667 53.8133 10.32 52.48 11.76C51.2 13.2 50 15.44 48.88 18.48L32 64.16C31.5733 64.1067 31.12 64.08 30.64 64.08C30.16 64.08 29.68 64.08 29.2 64.08C28.7733 64.08 28.32 64.08 27.84 64.08C27.36 64.08 26.9066 64.1067 26.48 64.16L6.07998 14.08C5.33331 12.16 4.50664 10.8533 3.59998 10.16C2.69331 9.41334 1.83998 9.01334 1.03998 8.96001V7.36001C2.63998 7.41334 4.50664 7.46667 6.63998 7.52001C8.82665 7.57334 11.0133 7.6 13.2 7.6C15.6533 7.6 17.9466 7.57334 20.08 7.52001C22.2666 7.46667 24.0266 7.41334 25.36 7.36001V8.96001C23.6533 9.01334 22.32 9.22667 21.36 9.60001C20.4 9.92001 19.8666 10.56 19.76 11.52C19.6533 12.4267 19.9733 13.8133 20.72 15.68L35.28 52.72L33.6 54.72L44.64 24.96C46.08 20.96 46.8266 17.8133 46.88 15.52C46.9333 13.2267 46.3733 11.5733 45.2 10.56C44.0266 9.54667 42.3466 9.01334 40.16 8.96001V7.36001C41.9733 7.41334 43.68 7.46667 45.28 7.52001C46.88 7.57334 48.5066 7.6 50.16 7.6C51.3333 7.6 52.4266 7.57334 53.44 7.52001C54.5066 7.46667 55.44 7.41334 56.24 7.36001Z"/>
<path d="M65.4137 2C67.6537 2 69.4137 2.56001 70.6937 3.68001C72.0271 4.74667 72.6937 6.24001 72.6937 8.16001C72.6937 10.08 72.0271 11.6 70.6937 12.72C69.4137 13.7867 67.6537 14.32 65.4137 14.32C63.1737 14.32 61.3871 13.7867 60.0537 12.72C58.7737 11.6 58.1337 10.08 58.1337 8.16001C58.1337 6.24001 58.7737 4.74667 60.0537 3.68001C61.3871 2.56001 63.1737 2 65.4137 2ZM71.6537 21.76V56.56C71.6537 58.8 72.0271 60.32 72.7737 61.12C73.5737 61.92 74.9071 62.32 76.7737 62.32V64C75.8137 63.9467 74.3204 63.8933 72.2937 63.84C70.2671 63.7333 68.2137 63.68 66.1337 63.68C64.0537 63.68 61.9471 63.7333 59.8137 63.84C57.6804 63.8933 56.0804 63.9467 55.0137 64V62.32C56.8804 62.32 58.1871 61.92 58.9337 61.12C59.7337 60.32 60.1337 58.8 60.1337 56.56V31.36C60.1337 28.96 59.7604 27.2 59.0137 26.08C58.3204 24.9067 56.9871 24.32 55.0137 24.32V22.64C56.7204 22.8 58.3737 22.88 59.9737 22.88C62.2137 22.88 64.2937 22.8 66.2137 22.64C68.1871 22.4267 70.0004 22.1333 71.6537 21.76Z"/>
<path d="M107.688 21.52C111.848 21.52 115.288 23.2267 118.008 26.64C120.781 30 122.168 35.2 122.168 42.24C122.168 47.7867 121.315 52.24 119.608 55.6C117.955 58.96 115.741 61.3867 112.968 62.88C110.195 64.3733 107.155 65.12 103.848 65.12C101.661 65.12 99.6348 64.7467 97.7681 64C95.9014 63.2533 94.3014 62.0267 92.9681 60.32L94.0881 59.92C95.0481 61.0933 96.1681 61.9733 97.4481 62.56C98.7814 63.1467 100.088 63.44 101.368 63.44C104.301 63.44 106.488 61.7867 107.928 58.48C109.368 55.1733 110.088 50.1333 110.088 43.36C110.088 38.7733 109.795 35.1467 109.208 32.48C108.675 29.76 107.875 27.84 106.808 26.72C105.741 25.5467 104.461 24.96 102.968 24.96C101.101 24.96 99.3948 25.7333 97.8481 27.28C96.3014 28.7733 95.4214 30.88 95.2081 33.6L94.8081 30.8C95.7681 27.76 97.3948 25.4667 99.6881 23.92C101.981 22.32 104.648 21.52 107.688 21.52ZM95.4481 1.44V62.4C94.1148 62.1867 92.7548 62.1867 91.3681 62.4C89.9814 62.6133 88.7014 62.9867 87.5281 63.52C86.3548 64 85.3681 64.5867 84.5681 65.28L83.3681 64.56C83.5814 63.8133 83.7148 63.0667 83.7681 62.32C83.8748 61.5733 83.9281 60.8267 83.9281 60.08V11.04C83.9281 8.64001 83.5548 6.88001 82.8081 5.76C82.1148 4.58667 80.7814 4 78.8081 4V2.32001C80.5148 2.48001 82.1681 2.56001 83.7681 2.56001C85.9548 2.56001 88.0348 2.48001 90.0081 2.32001C91.9814 2.10667 93.7948 1.81334 95.4481 1.44Z"/>
<path d="M147.763 21.52C152.456 21.52 156.136 22.9067 158.803 25.68C161.47 28.4533 162.803 32.9867 162.803 39.28H136.483L136.323 37.76H152.723C152.776 35.1467 152.616 32.7467 152.243 30.56C151.87 28.32 151.283 26.5333 150.483 25.2C149.683 23.8667 148.616 23.2 147.283 23.2C145.416 23.2 143.816 24.3733 142.483 26.72C141.203 29.0667 140.43 32.96 140.163 38.4L140.403 38.88C140.35 39.52 140.296 40.1867 140.243 40.88C140.243 41.5733 140.243 42.2933 140.243 43.04C140.243 46.72 140.75 49.7067 141.763 52C142.83 54.2933 144.163 55.9733 145.763 57.04C147.363 58.0533 148.99 58.56 150.643 58.56C151.763 58.56 152.91 58.4 154.083 58.08C155.31 57.7067 156.536 57.0667 157.763 56.16C158.99 55.2 160.136 53.8667 161.203 52.16L162.643 52.64C162.003 54.6667 160.99 56.64 159.603 58.56C158.216 60.48 156.456 62.0533 154.323 63.28C152.19 64.5067 149.63 65.12 146.643 65.12C143.016 65.12 139.816 64.3467 137.043 62.8C134.27 61.2533 132.083 58.9067 130.483 55.76C128.936 52.6133 128.163 48.6133 128.163 43.76C128.163 38.8 128.99 34.6667 130.643 31.36C132.35 28.0533 134.67 25.6 137.603 24C140.59 22.3467 143.976 21.52 147.763 21.52Z"/>
<path d="M183.276 21.52C185.516 21.52 187.462 21.8133 189.116 22.4C190.822 22.9333 192.049 23.4667 192.796 24C194.609 25.2267 195.729 24.4267 196.156 21.6H197.836C197.729 23.0933 197.649 24.9333 197.596 27.12C197.542 29.2533 197.516 32.1067 197.516 35.68H195.836C195.569 33.7067 195.062 31.76 194.316 29.84C193.569 27.92 192.476 26.3467 191.036 25.12C189.649 23.8933 187.836 23.28 185.596 23.28C184.049 23.28 182.742 23.7333 181.676 24.64C180.609 25.4933 180.076 26.7467 180.076 28.4C180.076 30 180.556 31.4133 181.516 32.64C182.476 33.8133 183.702 34.96 185.196 36.08C186.742 37.1467 188.342 38.2933 189.996 39.52C191.756 40.8533 193.356 42.1867 194.796 43.52C196.236 44.8 197.382 46.2133 198.236 47.76C199.089 49.3067 199.516 51.1467 199.516 53.28C199.516 55.68 198.822 57.7867 197.436 59.6C196.049 61.36 194.209 62.72 191.916 63.68C189.676 64.64 187.169 65.12 184.396 65.12C182.796 65.12 181.356 64.96 180.076 64.64C178.849 64.32 177.782 63.92 176.876 63.44C176.182 63.12 175.516 62.8267 174.876 62.56C174.289 62.24 173.729 61.9733 173.196 61.76C172.662 61.6 172.182 61.7867 171.756 62.32C171.382 62.8533 171.089 63.6 170.876 64.56H169.196C169.302 62.8533 169.382 60.7733 169.436 58.32C169.489 55.8667 169.516 52.6133 169.516 48.56H171.196C171.516 51.44 172.102 54 172.956 56.24C173.809 58.4267 174.956 60.16 176.396 61.44C177.889 62.6667 179.756 63.28 181.996 63.28C182.902 63.28 183.782 63.0933 184.636 62.72C185.489 62.3467 186.182 61.7333 186.716 60.88C187.302 60.0267 187.596 58.9333 187.596 57.6C187.596 55.2533 186.822 53.3067 185.276 51.76C183.782 50.2133 181.862 48.5333 179.516 46.72C177.809 45.3333 176.182 43.9733 174.636 42.64C173.142 41.2533 171.916 39.76 170.956 38.16C169.996 36.5067 169.516 34.64 169.516 32.56C169.516 30.16 170.156 28.1333 171.436 26.48C172.716 24.8267 174.396 23.6 176.476 22.8C178.609 21.9467 180.876 21.52 183.276 21.52Z"/>
<path d="M228.869 7.2C230.949 7.2 232.629 7.36 233.909 7.68C235.189 7.94667 236.282 8.34667 237.189 8.88001C238.042 9.25334 238.815 9.73334 239.509 10.32C240.255 10.9067 240.869 11.6267 241.349 12.48C241.829 13.3333 242.069 14.2933 242.069 15.36C242.069 16.96 241.455 18.24 240.229 19.2C239.002 20.16 237.562 20.64 235.909 20.64C234.309 20.64 232.922 20.24 231.749 19.44C230.629 18.64 230.069 17.3867 230.069 15.68C230.069 14.3467 230.549 13.1467 231.509 12.08C232.469 10.96 233.695 10.2667 235.189 10C234.815 9.57334 234.122 9.22667 233.109 8.96001C232.149 8.69334 231.082 8.56001 229.909 8.56001C227.135 8.56001 224.762 9.44001 222.789 11.2C220.869 12.9067 219.909 15.52 219.909 19.04C219.909 20.2667 220.122 21.5733 220.549 22.96C220.975 24.3467 221.802 25.76 223.029 27.2C223.935 26.9867 224.762 26.8267 225.509 26.72C226.309 26.6133 226.975 26.56 227.509 26.56C228.469 26.56 229.189 26.7733 229.669 27.2C230.202 27.5733 230.469 28.08 230.469 28.72C230.469 29.2 230.255 29.6 229.829 29.92C229.402 30.24 228.869 30.4 228.229 30.4C227.322 30.4 226.389 30.16 225.429 29.68C224.469 29.1467 223.695 28.6933 223.109 28.32C220.602 29.6 218.549 31.2533 216.949 33.28C215.402 35.2533 214.629 37.92 214.629 41.28C214.629 44.8 215.589 47.7067 217.509 50C219.429 52.24 222.122 53.9467 225.589 55.12C229.109 56.24 233.242 56.8 237.989 56.8C240.655 56.8 243.295 56.5067 245.909 55.92C248.522 55.3333 250.869 54.4533 252.949 53.28C255.082 52.1067 256.789 50.6667 258.069 48.96C259.349 47.2 259.989 45.1733 259.989 42.88C259.989 42.0267 259.855 40.96 259.589 39.68C259.375 38.3467 258.815 37.04 257.909 35.76C257.002 34.4267 255.509 33.3333 253.429 32.48L253.989 31.76C256.869 32.6667 259.055 34.3733 260.549 36.88C262.042 39.3867 262.789 42.2667 262.789 45.52C262.789 49.2533 261.642 52.6133 259.349 55.6C257.055 58.5333 253.829 60.8533 249.669 62.56C245.562 64.2667 240.735 65.12 235.189 65.12C230.762 65.12 226.735 64.6667 223.109 63.76C219.535 62.8533 216.442 61.5467 213.829 59.84C211.269 58.08 209.269 55.9733 207.829 53.52C206.442 51.0667 205.749 48.2933 205.749 45.2C205.749 42.2133 206.362 39.68 207.589 37.6C208.869 35.4667 210.415 33.7333 212.229 32.4C214.042 31.0133 215.855 29.9467 217.669 29.2C219.482 28.4533 220.922 27.9467 221.989 27.68C220.335 26.9867 218.815 26.1867 217.429 25.28C216.095 24.32 215.002 23.2 214.149 21.92C213.349 20.64 212.949 19.2 212.949 17.6C212.949 15.8933 213.402 14.4 214.309 13.12C215.215 11.7867 216.415 10.6933 217.909 9.84C219.455 8.98667 221.162 8.34667 223.029 7.92C224.949 7.44 226.895 7.2 228.869 7.2ZM260.309 6.24C264.095 6.24 267.162 7.22667 269.509 9.2C271.855 11.1733 273.029 13.9467 273.029 17.52C273.029 20.24 272.362 22.5333 271.029 24.4C269.749 26.2667 267.882 27.7867 265.429 28.96C263.029 30.1333 260.149 31.0667 256.789 31.76C256.042 32.0267 255.109 32.3467 253.989 32.72C252.869 33.04 251.722 33.36 250.549 33.68C249.375 34 248.229 34.32 247.109 34.64C246.042 34.96 245.109 35.2267 244.309 35.44C240.149 36.3467 236.949 37.3867 234.709 38.56C232.469 39.68 231.349 41.2267 231.349 43.2C231.349 44.5333 231.775 45.68 232.629 46.64C233.535 47.6 234.655 48.3467 235.989 48.88C237.322 49.4133 238.655 49.68 239.989 49.68C240.362 49.68 240.762 49.6533 241.189 49.6C241.615 49.4933 242.015 49.3867 242.389 49.28C242.762 49.12 243.029 48.9867 243.189 48.88C241.855 48.4533 240.842 47.7867 240.149 46.88C239.509 45.92 239.189 44.8267 239.189 43.6C239.189 41.8933 239.802 40.5867 241.029 39.68C242.255 38.7733 243.775 38.32 245.589 38.32C247.509 38.32 249.002 38.8267 250.069 39.84C251.189 40.8533 251.749 42.16 251.749 43.76C251.749 45.4133 251.242 46.8 250.229 47.92C249.215 48.9867 247.855 49.7867 246.149 50.32C244.442 50.8 242.522 51.04 240.389 51.04C238.309 51.04 236.335 50.6667 234.469 49.92C232.655 49.1733 231.189 48.0533 230.069 46.56C229.002 45.0133 228.469 43.0933 228.469 40.8C228.469 37.9733 229.189 35.6267 230.629 33.76C232.069 31.84 234.122 30.2667 236.789 29.04C239.509 27.76 242.709 26.7733 246.389 26.08C247.509 25.8133 248.735 25.52 250.069 25.2C251.455 24.8267 252.869 24.4533 254.309 24.08C255.749 23.7067 257.082 23.3067 258.309 22.88C262.149 21.92 265.109 20.8533 267.189 19.68C269.322 18.5067 270.389 16.9333 270.389 14.96C270.389 13.52 269.935 12.2667 269.029 11.2C268.175 10.08 267.055 9.22667 265.669 8.64001C264.282 8 262.842 7.68 261.349 7.68C260.869 7.68 260.415 7.70667 259.989 7.76001C259.615 7.81334 259.295 7.92 259.029 8.08C260.362 8.56 261.349 9.28 261.989 10.24C262.629 11.2 262.949 12.16 262.949 13.12C262.949 14.7733 262.335 16.0533 261.109 16.96C259.882 17.8133 258.362 18.24 256.549 18.24C254.735 18.24 253.242 17.7867 252.069 16.88C250.895 15.92 250.309 14.6133 250.309 12.96C250.309 11.52 250.709 10.32 251.509 9.36001C252.362 8.34667 253.535 7.57334 255.029 7.04001C256.522 6.50667 258.282 6.24 260.309 6.24Z"/>
<path d="M310.984 64V62.4C312.69 62.2933 313.97 62.08 314.824 61.76C315.677 61.44 316.237 60.8 316.504 59.84C316.824 58.88 316.984 57.44 316.984 55.52V15.84C316.984 13.8667 316.824 12.4267 316.504 11.52C316.237 10.56 315.65 9.92001 314.744 9.60001C313.89 9.22667 312.637 9.01334 310.984 8.96001V7.36001C312.424 7.41334 314.29 7.46667 316.584 7.52001C318.93 7.57334 321.25 7.6 323.544 7.6C325.997 7.6 328.29 7.57334 330.424 7.52001C332.61 7.46667 334.37 7.41334 335.704 7.36001V8.96001C333.997 9.01334 332.69 9.22667 331.784 9.60001C330.93 9.92001 330.37 10.56 330.104 11.52C329.837 12.4267 329.704 13.8667 329.704 15.84V55.52C329.704 57.44 329.837 58.88 330.104 59.84C330.424 60.8 331.01 61.44 331.864 61.76C332.717 62.08 333.997 62.2933 335.704 62.4V64C334.37 63.8933 332.61 63.84 330.424 63.84C328.29 63.7867 325.997 63.76 323.544 63.76C321.25 63.76 318.93 63.7867 316.584 63.84C314.29 63.84 312.424 63.8933 310.984 64ZM277.064 64V62.4C278.77 62.2933 280.05 62.08 280.904 61.76C281.757 61.44 282.317 60.8 282.584 59.84C282.904 58.88 283.064 57.44 283.064 55.52V15.84C283.064 13.8667 282.904 12.4267 282.584 11.52C282.317 10.56 281.73 9.92001 280.824 9.60001C279.97 9.22667 278.717 9.01334 277.064 8.96001V7.36001C278.45 7.41334 280.237 7.46667 282.424 7.52001C284.664 7.57334 287.09 7.6 289.704 7.6C291.944 7.6 294.157 7.57334 296.344 7.52001C298.53 7.46667 300.344 7.41334 301.784 7.36001V8.96001C300.077 9.01334 298.77 9.22667 297.864 9.60001C297.01 9.92001 296.45 10.56 296.184 11.52C295.917 12.4267 295.784 13.8667 295.784 15.84V55.52C295.784 57.44 295.917 58.88 296.184 59.84C296.504 60.8 297.09 61.44 297.944 61.76C298.797 62.08 300.077 62.2933 301.784 62.4V64C300.344 63.8933 298.53 63.84 296.344 63.84C294.157 63.7867 291.944 63.76 289.704 63.76C287.09 63.76 284.664 63.7867 282.424 63.84C280.237 63.84 278.45 63.8933 277.064 64ZM290.584 36.32V34.72H322.184V36.32H290.584Z"/>
<path d="M350.819 64.56C348.419 64.56 346.419 64.1067 344.819 63.2C343.219 62.2933 342.046 61.0933 341.299 59.6C340.553 58.0533 340.179 56.3733 340.179 54.56C340.179 52.2667 340.686 50.4 341.699 48.96C342.766 47.52 344.126 46.3467 345.779 45.44C347.433 44.5333 349.166 43.7867 350.979 43.2C352.846 42.6133 354.606 42.0533 356.259 41.52C357.966 40.9333 359.326 40.2667 360.339 39.52C361.406 38.72 361.939 37.7067 361.939 36.48V30.24C361.939 28.8533 361.699 27.6267 361.219 26.56C360.793 25.44 360.099 24.5867 359.139 24C358.233 23.4133 357.033 23.12 355.539 23.12C354.473 23.12 353.406 23.28 352.339 23.6C351.273 23.8667 350.393 24.3467 349.699 25.04C351.193 25.5733 352.339 26.4 353.139 27.52C353.993 28.5867 354.419 29.8133 354.419 31.2C354.419 33.0133 353.779 34.4533 352.499 35.52C351.273 36.5867 349.806 37.12 348.099 37.12C346.179 37.12 344.713 36.5333 343.699 35.36C342.739 34.1333 342.259 32.6667 342.259 30.96C342.259 29.4133 342.633 28.1333 343.379 27.12C344.179 26.1067 345.273 25.1467 346.659 24.24C348.153 23.3867 349.939 22.72 352.019 22.24C354.153 21.76 356.446 21.52 358.899 21.52C361.353 21.52 363.566 21.7867 365.539 22.32C367.513 22.8 369.166 23.7067 370.499 25.04C371.726 26.2667 372.526 27.7867 372.899 29.6C373.273 31.36 373.459 33.6 373.459 36.32V58.08C373.459 59.4133 373.593 60.3467 373.859 60.88C374.126 61.36 374.579 61.6 375.219 61.6C375.699 61.6 376.153 61.4667 376.579 61.2C377.059 60.9333 377.566 60.6133 378.099 60.24L378.899 61.6C377.779 62.56 376.473 63.3067 374.979 63.84C373.539 64.32 371.913 64.56 370.099 64.56C368.126 64.56 366.553 64.2933 365.379 63.76C364.206 63.1733 363.353 62.4 362.819 61.44C362.339 60.48 362.099 59.36 362.099 58.08C360.819 60.1067 359.273 61.7067 357.459 62.88C355.646 64 353.433 64.56 350.819 64.56ZM356.499 59.44C357.566 59.44 358.526 59.2 359.379 58.72C360.286 58.1867 361.139 57.3333 361.939 56.16V39.76C361.459 40.56 360.793 41.28 359.939 41.92C359.086 42.56 358.179 43.2267 357.219 43.92C356.259 44.56 355.326 45.28 354.419 46.08C353.566 46.88 352.873 47.8667 352.339 49.04C351.806 50.2133 351.539 51.6267 351.539 53.28C351.539 55.36 351.993 56.9067 352.899 57.92C353.806 58.9333 355.006 59.44 356.499 59.44Z"/>
<path d="M397.506 21.76V70.56C397.506 73.0667 398.146 74.72 399.426 75.52C400.706 76.3733 402.466 76.8 404.706 76.8V78.48C403.319 78.4267 401.399 78.3467 398.946 78.24C396.546 78.1867 393.986 78.16 391.266 78.16C389.292 78.16 387.346 78.1867 385.426 78.24C383.559 78.3467 382.146 78.4267 381.186 78.48V76.8C382.946 76.8 384.172 76.4267 384.866 75.68C385.612 74.9333 385.986 73.4933 385.986 71.36V31.36C385.986 28.96 385.612 27.2 384.866 26.08C384.119 24.9067 382.786 24.32 380.866 24.32V22.64C382.572 22.8 384.226 22.88 385.826 22.88C388.012 22.88 390.092 22.8 392.066 22.64C394.039 22.4267 395.852 22.1333 397.506 21.76ZM409.906 21.52C412.626 21.52 415.052 22.2667 417.186 23.76C419.319 25.2 421.026 27.4133 422.306 30.4C423.586 33.3333 424.226 37.0133 424.226 41.44C424.226 45.3333 423.772 48.7467 422.866 51.68C422.012 54.6133 420.759 57.0933 419.106 59.12C417.506 61.0933 415.559 62.5867 413.266 63.6C411.026 64.6133 408.492 65.12 405.666 65.12C403.586 65.12 401.692 64.7467 399.986 64C398.279 63.3067 396.972 62.2933 396.066 60.96L396.866 59.92C397.399 60.88 398.146 61.6267 399.106 62.16C400.119 62.6933 401.266 62.96 402.546 62.96C404.946 62.96 406.839 62.16 408.226 60.56C409.612 58.9067 410.599 56.6133 411.186 53.68C411.826 50.6933 412.146 47.1467 412.146 43.04C412.146 38.4533 411.852 34.8533 411.266 32.24C410.679 29.6267 409.879 27.76 408.866 26.64C407.852 25.52 406.626 24.96 405.186 24.96C403.266 24.96 401.506 25.7067 399.906 27.2C398.359 28.6933 397.479 30.8267 397.266 33.6L396.866 30.8C397.826 27.76 399.452 25.4667 401.746 23.92C404.092 22.32 406.812 21.52 409.906 21.52Z"/>
<path d="M445.474 21.76V70.56C445.474 73.0667 446.114 74.72 447.394 75.52C448.674 76.3733 450.434 76.8 452.674 76.8V78.48C451.288 78.4267 449.368 78.3467 446.914 78.24C444.514 78.1867 441.954 78.16 439.234 78.16C437.261 78.16 435.314 78.1867 433.394 78.24C431.528 78.3467 430.114 78.4267 429.154 78.48V76.8C430.914 76.8 432.141 76.4267 432.834 75.68C433.581 74.9333 433.954 73.4933 433.954 71.36V31.36C433.954 28.96 433.581 27.2 432.834 26.08C432.088 24.9067 430.754 24.32 428.834 24.32V22.64C430.541 22.8 432.194 22.88 433.794 22.88C435.981 22.88 438.061 22.8 440.034 22.64C442.008 22.4267 443.821 22.1333 445.474 21.76ZM457.874 21.52C460.594 21.52 463.021 22.2667 465.154 23.76C467.288 25.2 468.994 27.4133 470.274 30.4C471.554 33.3333 472.194 37.0133 472.194 41.44C472.194 45.3333 471.741 48.7467 470.834 51.68C469.981 54.6133 468.728 57.0933 467.074 59.12C465.474 61.0933 463.528 62.5867 461.234 63.6C458.994 64.6133 456.461 65.12 453.634 65.12C451.554 65.12 449.661 64.7467 447.954 64C446.248 63.3067 444.941 62.2933 444.034 60.96L444.834 59.92C445.368 60.88 446.114 61.6267 447.074 62.16C448.088 62.6933 449.234 62.96 450.514 62.96C452.914 62.96 454.808 62.16 456.194 60.56C457.581 58.9067 458.568 56.6133 459.154 53.68C459.794 50.6933 460.114 47.1467 460.114 43.04C460.114 38.4533 459.821 34.8533 459.234 32.24C458.648 29.6267 457.848 27.76 456.834 26.64C455.821 25.52 454.594 24.96 453.154 24.96C451.234 24.96 449.474 25.7067 447.874 27.2C446.328 28.6933 445.448 30.8267 445.234 33.6L444.834 30.8C445.794 27.76 447.421 25.4667 449.714 23.92C452.061 22.32 454.781 21.52 457.874 21.52Z"/>
<path d="M497.763 21.52C502.456 21.52 506.136 22.9067 508.803 25.68C511.47 28.4533 512.803 32.9867 512.803 39.28H486.483L486.323 37.76H502.723C502.776 35.1467 502.616 32.7467 502.243 30.56C501.87 28.32 501.283 26.5333 500.483 25.2C499.683 23.8667 498.616 23.2 497.283 23.2C495.416 23.2 493.816 24.3733 492.483 26.72C491.203 29.0667 490.43 32.96 490.163 38.4L490.403 38.88C490.35 39.52 490.296 40.1867 490.243 40.88C490.243 41.5733 490.243 42.2933 490.243 43.04C490.243 46.72 490.75 49.7067 491.763 52C492.83 54.2933 494.163 55.9733 495.763 57.04C497.363 58.0533 498.99 58.56 500.643 58.56C501.763 58.56 502.91 58.4 504.083 58.08C505.31 57.7067 506.536 57.0667 507.763 56.16C508.99 55.2 510.136 53.8667 511.203 52.16L512.643 52.64C512.003 54.6667 510.99 56.64 509.603 58.56C508.216 60.48 506.456 62.0533 504.323 63.28C502.19 64.5067 499.63 65.12 496.643 65.12C493.016 65.12 489.816 64.3467 487.043 62.8C484.27 61.2533 482.083 58.9067 480.483 55.76C478.936 52.6133 478.163 48.6133 478.163 43.76C478.163 38.8 478.99 34.6667 480.643 31.36C482.35 28.0533 484.67 25.6 487.603 24C490.59 22.3467 493.976 21.52 497.763 21.52Z"/>
<path d="M546.727 21.52C548.967 21.52 550.78 21.8133 552.167 22.4C553.607 22.9333 554.727 23.68 555.527 24.64C556.38 25.6533 556.994 26.96 557.367 28.56C557.794 30.16 558.007 32.32 558.007 35.04V56.56C558.007 58.8 558.38 60.32 559.127 61.12C559.927 61.92 561.26 62.32 563.127 62.32V64C562.113 63.9467 560.593 63.8933 558.567 63.84C556.54 63.7333 554.54 63.68 552.567 63.68C550.54 63.68 548.54 63.7333 546.567 63.84C544.647 63.8933 543.18 63.9467 542.167 64V62.32C543.767 62.32 544.887 61.92 545.527 61.12C546.167 60.32 546.487 58.8 546.487 56.56V31.68C546.487 30.3467 546.354 29.2 546.087 28.24C545.82 27.2267 545.34 26.4533 544.647 25.92C543.954 25.3333 542.914 25.04 541.527 25.04C540.087 25.04 538.754 25.44 537.527 26.24C536.354 27.04 535.394 28.16 534.647 29.6C533.954 30.9867 533.607 32.56 533.607 34.32V56.56C533.607 58.8 533.927 60.32 534.567 61.12C535.26 61.92 536.38 62.32 537.927 62.32V64C536.967 63.9467 535.553 63.8933 533.687 63.84C531.873 63.7333 529.98 63.68 528.007 63.68C525.98 63.68 523.9 63.7333 521.767 63.84C519.634 63.8933 518.034 63.9467 516.967 64V62.32C518.834 62.32 520.14 61.92 520.887 61.12C521.687 60.32 522.087 58.8 522.087 56.56V31.36C522.087 28.96 521.714 27.2 520.967 26.08C520.274 24.9067 518.94 24.32 516.967 24.32V22.64C518.674 22.8 520.327 22.88 521.927 22.88C524.167 22.88 526.247 22.8 528.167 22.64C530.14 22.4267 531.954 22.1333 533.607 21.76V28.96C534.94 26.24 536.754 24.32 539.047 23.2C541.34 22.08 543.9 21.52 546.727 21.52Z"/>
<path d="M576.508 2C578.748 2 580.507 2.56001 581.787 3.68001C583.121 4.74667 583.787 6.24001 583.787 8.16001C583.787 10.08 583.121 11.6 581.787 12.72C580.507 13.7867 578.748 14.32 576.508 14.32C574.268 14.32 572.481 13.7867 571.147 12.72C569.867 11.6 569.227 10.08 569.227 8.16001C569.227 6.24001 569.867 4.74667 571.147 3.68001C572.481 2.56001 574.268 2 576.508 2ZM582.747 21.76V56.56C582.747 58.8 583.121 60.32 583.867 61.12C584.667 61.92 586.001 62.32 587.867 62.32V64C586.907 63.9467 585.414 63.8933 583.387 63.84C581.361 63.7333 579.307 63.68 577.227 63.68C575.147 63.68 573.041 63.7333 570.907 63.84C568.774 63.8933 567.174 63.9467 566.107 64V62.32C567.974 62.32 569.281 61.92 570.027 61.12C570.827 60.32 571.227 58.8 571.227 56.56V31.36C571.227 28.96 570.854 27.2 570.107 26.08C569.414 24.9067 568.081 24.32 566.107 24.32V22.64C567.814 22.8 569.468 22.88 571.068 22.88C573.308 22.88 575.387 22.8 577.307 22.64C579.281 22.4267 581.094 22.1333 582.747 21.76Z"/>
<path d="M621.102 21.52C623.342 21.52 625.155 21.8133 626.542 22.4C627.982 22.9333 629.102 23.68 629.902 24.64C630.755 25.6533 631.369 26.96 631.742 28.56C632.169 30.16 632.382 32.32 632.382 35.04V56.56C632.382 58.8 632.755 60.32 633.502 61.12C634.302 61.92 635.635 62.32 637.502 62.32V64C636.488 63.9467 634.968 63.8933 632.942 63.84C630.915 63.7333 628.915 63.68 626.942 63.68C624.915 63.68 622.915 63.7333 620.942 63.84C619.022 63.8933 617.555 63.9467 616.542 64V62.32C618.142 62.32 619.262 61.92 619.902 61.12C620.542 60.32 620.862 58.8 620.862 56.56V31.68C620.862 30.3467 620.729 29.2 620.462 28.24C620.195 27.2267 619.715 26.4533 619.022 25.92C618.329 25.3333 617.289 25.04 615.902 25.04C614.462 25.04 613.129 25.44 611.902 26.24C610.729 27.04 609.769 28.16 609.022 29.6C608.329 30.9867 607.982 32.56 607.982 34.32V56.56C607.982 58.8 608.302 60.32 608.942 61.12C609.635 61.92 610.755 62.32 612.302 62.32V64C611.342 63.9467 609.928 63.8933 608.062 63.84C606.248 63.7333 604.355 63.68 602.382 63.68C600.355 63.68 598.275 63.7333 596.142 63.84C594.009 63.8933 592.409 63.9467 591.342 64V62.32C593.209 62.32 594.515 61.92 595.262 61.12C596.062 60.32 596.462 58.8 596.462 56.56V31.36C596.462 28.96 596.089 27.2 595.342 26.08C594.649 24.9067 593.315 24.32 591.342 24.32V22.64C593.049 22.8 594.702 22.88 596.302 22.88C598.542 22.88 600.622 22.8 602.542 22.64C604.515 22.4267 606.329 22.1333 607.982 21.76V28.96C609.315 26.24 611.129 24.32 613.422 23.2C615.715 22.08 618.275 21.52 621.102 21.52Z"/>
<path d="M655.456 79.04C652.149 79.04 649.189 78.7467 646.576 78.16C644.016 77.6267 641.989 76.7733 640.496 75.6C639.056 74.48 638.336 73.0933 638.336 71.44C638.336 69.7867 639.082 68.2933 640.576 66.96C642.069 65.68 644.282 64.6667 647.216 63.92L647.936 65.2C646.922 66 646.176 66.8533 645.696 67.76C645.269 68.72 645.056 69.7067 645.056 70.72C645.056 72.96 646.069 74.6667 648.096 75.84C650.176 77.0667 652.976 77.68 656.496 77.68C658.896 77.68 661.029 77.36 662.896 76.72C664.816 76.08 666.309 75.12 667.376 73.84C668.496 72.56 669.056 70.9867 669.056 69.12C669.056 67.52 668.469 66.16 667.296 65.04C666.122 63.9733 663.776 63.44 660.256 63.44H655.296C653.109 63.44 651.189 63.2 649.536 62.72C647.936 62.24 646.682 61.4933 645.776 60.48C644.869 59.4133 644.416 58.08 644.416 56.48C644.416 54.24 645.296 52.2667 647.056 50.56C648.816 48.8533 651.429 47.2533 654.896 45.76L655.696 46.4C654.682 47.04 653.722 47.7333 652.816 48.48C651.962 49.1733 651.536 50.08 651.536 51.2C651.536 52.9067 652.602 53.76 654.736 53.76H663.456C666.389 53.76 669.002 54.1067 671.296 54.8C673.642 55.4933 675.482 56.64 676.816 58.24C678.202 59.7867 678.896 61.8133 678.896 64.32C678.896 66.9333 678.042 69.36 676.336 71.6C674.682 73.84 672.122 75.6267 668.656 76.96C665.189 78.3467 660.789 79.04 655.456 79.04ZM656.256 46.96C653.216 46.96 650.496 46.5067 648.096 45.6C645.696 44.6933 643.802 43.3067 642.416 41.44C641.029 39.5733 640.336 37.1733 640.336 34.24C640.336 31.3067 641.029 28.9067 642.416 27.04C643.802 25.12 645.696 23.7333 648.096 22.88C650.496 21.9733 653.216 21.52 656.256 21.52C659.296 21.52 662.016 21.9733 664.416 22.88C666.816 23.7333 668.709 25.12 670.096 27.04C671.482 28.9067 672.176 31.3067 672.176 34.24C672.176 37.1733 671.482 39.5733 670.096 41.44C668.709 43.3067 666.816 44.6933 664.416 45.6C662.016 46.5067 659.296 46.96 656.256 46.96ZM656.256 45.52C657.696 45.52 658.816 44.72 659.616 43.12C660.416 41.4667 660.816 38.5067 660.816 34.24C660.816 29.9733 660.416 27.04 659.616 25.44C658.816 23.7867 657.696 22.96 656.256 22.96C654.869 22.96 653.749 23.7867 652.896 25.44C652.096 27.04 651.696 29.9733 651.696 34.24C651.696 38.5067 652.096 41.4667 652.896 43.12C653.749 44.72 654.869 45.52 656.256 45.52ZM668.736 28.4L667.136 27.84C667.936 25.76 669.216 24.0267 670.976 22.64C672.789 21.2533 674.736 20.56 676.816 20.56C678.522 20.56 679.802 21.04 680.656 22C681.562 22.9067 682.016 24.1067 682.016 25.6C682.016 27.2 681.589 28.4 680.736 29.2C679.882 29.9467 678.922 30.32 677.856 30.32C676.949 30.32 676.096 30 675.296 29.36C674.549 28.72 674.122 27.76 674.016 26.48C673.909 25.1467 674.362 23.44 675.376 21.36L675.936 21.84C673.909 22.5867 672.389 23.4667 671.376 24.48C670.362 25.44 669.482 26.7467 668.736 28.4Z"/>
<path d="M699.369 21.52C701.609 21.52 703.556 21.8133 705.209 22.4C706.916 22.9333 708.143 23.4667 708.889 24C710.703 25.2267 711.823 24.4267 712.249 21.6H713.929C713.823 23.0933 713.743 24.9333 713.689 27.12C713.636 29.2533 713.609 32.1067 713.609 35.68H711.929C711.663 33.7067 711.156 31.76 710.409 29.84C709.663 27.92 708.569 26.3467 707.129 25.12C705.743 23.8933 703.929 23.28 701.689 23.28C700.143 23.28 698.836 23.7333 697.769 24.64C696.703 25.4933 696.169 26.7467 696.169 28.4C696.169 30 696.649 31.4133 697.609 32.64C698.569 33.8133 699.796 34.96 701.289 36.08C702.836 37.1467 704.436 38.2933 706.089 39.52C707.849 40.8533 709.449 42.1867 710.889 43.52C712.329 44.8 713.476 46.2133 714.329 47.76C715.183 49.3067 715.609 51.1467 715.609 53.28C715.609 55.68 714.916 57.7867 713.529 59.6C712.143 61.36 710.303 62.72 708.009 63.68C705.769 64.64 703.263 65.12 700.489 65.12C698.889 65.12 697.449 64.96 696.169 64.64C694.943 64.32 693.876 63.92 692.969 63.44C692.276 63.12 691.609 62.8267 690.969 62.56C690.383 62.24 689.823 61.9733 689.289 61.76C688.756 61.6 688.276 61.7867 687.849 62.32C687.476 62.8533 687.183 63.6 686.969 64.56H685.289C685.396 62.8533 685.476 60.7733 685.529 58.32C685.583 55.8667 685.609 52.6133 685.609 48.56H687.289C687.609 51.44 688.196 54 689.049 56.24C689.903 58.4267 691.049 60.16 692.489 61.44C693.983 62.6667 695.849 63.28 698.089 63.28C698.996 63.28 699.876 63.0933 700.729 62.72C701.583 62.3467 702.276 61.7333 702.809 60.88C703.396 60.0267 703.689 58.9333 703.689 57.6C703.689 55.2533 702.916 53.3067 701.369 51.76C699.876 50.2133 697.956 48.5333 695.609 46.72C693.903 45.3333 692.276 43.9733 690.729 42.64C689.236 41.2533 688.009 39.76 687.049 38.16C686.089 36.5067 685.609 34.64 685.609 32.56C685.609 30.16 686.249 28.1333 687.529 26.48C688.809 24.8267 690.489 23.6 692.569 22.8C694.703 21.9467 696.969 21.52 699.369 21.52Z"/>
</mask>
<path d="M56.24 7.36001V8.96001C55.0666 9.38667 53.8133 10.32 52.48 11.76C51.2 13.2 50 15.44 48.88 18.48L32 64.16C31.5733 64.1067 31.12 64.08 30.64 64.08C30.16 64.08 29.68 64.08 29.2 64.08C28.7733 64.08 28.32 64.08 27.84 64.08C27.36 64.08 26.9066 64.1067 26.48 64.16L6.07998 14.08C5.33331 12.16 4.50664 10.8533 3.59998 10.16C2.69331 9.41334 1.83998 9.01334 1.03998 8.96001V7.36001C2.63998 7.41334 4.50664 7.46667 6.63998 7.52001C8.82665 7.57334 11.0133 7.6 13.2 7.6C15.6533 7.6 17.9466 7.57334 20.08 7.52001C22.2666 7.46667 24.0266 7.41334 25.36 7.36001V8.96001C23.6533 9.01334 22.32 9.22667 21.36 9.60001C20.4 9.92001 19.8666 10.56 19.76 11.52C19.6533 12.4267 19.9733 13.8133 20.72 15.68L35.28 52.72L33.6 54.72L44.64 24.96C46.08 20.96 46.8266 17.8133 46.88 15.52C46.9333 13.2267 46.3733 11.5733 45.2 10.56C44.0266 9.54667 42.3466 9.01334 40.16 8.96001V7.36001C41.9733 7.41334 43.68 7.46667 45.28 7.52001C46.88 7.57334 48.5066 7.6 50.16 7.6C51.3333 7.6 52.4266 7.57334 53.44 7.52001C54.5066 7.46667 55.44 7.41334 56.24 7.36001Z" fill="white"/>
<path d="M65.4137 2C67.6537 2 69.4137 2.56001 70.6937 3.68001C72.0271 4.74667 72.6937 6.24001 72.6937 8.16001C72.6937 10.08 72.0271 11.6 70.6937 12.72C69.4137 13.7867 67.6537 14.32 65.4137 14.32C63.1737 14.32 61.3871 13.7867 60.0537 12.72C58.7737 11.6 58.1337 10.08 58.1337 8.16001C58.1337 6.24001 58.7737 4.74667 60.0537 3.68001C61.3871 2.56001 63.1737 2 65.4137 2ZM71.6537 21.76V56.56C71.6537 58.8 72.0271 60.32 72.7737 61.12C73.5737 61.92 74.9071 62.32 76.7737 62.32V64C75.8137 63.9467 74.3204 63.8933 72.2937 63.84C70.2671 63.7333 68.2137 63.68 66.1337 63.68C64.0537 63.68 61.9471 63.7333 59.8137 63.84C57.6804 63.8933 56.0804 63.9467 55.0137 64V62.32C56.8804 62.32 58.1871 61.92 58.9337 61.12C59.7337 60.32 60.1337 58.8 60.1337 56.56V31.36C60.1337 28.96 59.7604 27.2 59.0137 26.08C58.3204 24.9067 56.9871 24.32 55.0137 24.32V22.64C56.7204 22.8 58.3737 22.88 59.9737 22.88C62.2137 22.88 64.2937 22.8 66.2137 22.64C68.1871 22.4267 70.0004 22.1333 71.6537 21.76Z" fill="white"/>
<path d="M107.688 21.52C111.848 21.52 115.288 23.2267 118.008 26.64C120.781 30 122.168 35.2 122.168 42.24C122.168 47.7867 121.315 52.24 119.608 55.6C117.955 58.96 115.741 61.3867 112.968 62.88C110.195 64.3733 107.155 65.12 103.848 65.12C101.661 65.12 99.6348 64.7467 97.7681 64C95.9014 63.2533 94.3014 62.0267 92.9681 60.32L94.0881 59.92C95.0481 61.0933 96.1681 61.9733 97.4481 62.56C98.7814 63.1467 100.088 63.44 101.368 63.44C104.301 63.44 106.488 61.7867 107.928 58.48C109.368 55.1733 110.088 50.1333 110.088 43.36C110.088 38.7733 109.795 35.1467 109.208 32.48C108.675 29.76 107.875 27.84 106.808 26.72C105.741 25.5467 104.461 24.96 102.968 24.96C101.101 24.96 99.3948 25.7333 97.8481 27.28C96.3014 28.7733 95.4214 30.88 95.2081 33.6L94.8081 30.8C95.7681 27.76 97.3948 25.4667 99.6881 23.92C101.981 22.32 104.648 21.52 107.688 21.52ZM95.4481 1.44V62.4C94.1148 62.1867 92.7548 62.1867 91.3681 62.4C89.9814 62.6133 88.7014 62.9867 87.5281 63.52C86.3548 64 85.3681 64.5867 84.5681 65.28L83.3681 64.56C83.5814 63.8133 83.7148 63.0667 83.7681 62.32C83.8748 61.5733 83.9281 60.8267 83.9281 60.08V11.04C83.9281 8.64001 83.5548 6.88001 82.8081 5.76C82.1148 4.58667 80.7814 4 78.8081 4V2.32001C80.5148 2.48001 82.1681 2.56001 83.7681 2.56001C85.9548 2.56001 88.0348 2.48001 90.0081 2.32001C91.9814 2.10667 93.7948 1.81334 95.4481 1.44Z" fill="white"/>
<path d="M147.763 21.52C152.456 21.52 156.136 22.9067 158.803 25.68C161.47 28.4533 162.803 32.9867 162.803 39.28H136.483L136.323 37.76H152.723C152.776 35.1467 152.616 32.7467 152.243 30.56C151.87 28.32 151.283 26.5333 150.483 25.2C149.683 23.8667 148.616 23.2 147.283 23.2C145.416 23.2 143.816 24.3733 142.483 26.72C141.203 29.0667 140.43 32.96 140.163 38.4L140.403 38.88C140.35 39.52 140.296 40.1867 140.243 40.88C140.243 41.5733 140.243 42.2933 140.243 43.04C140.243 46.72 140.75 49.7067 141.763 52C142.83 54.2933 144.163 55.9733 145.763 57.04C147.363 58.0533 148.99 58.56 150.643 58.56C151.763 58.56 152.91 58.4 154.083 58.08C155.31 57.7067 156.536 57.0667 157.763 56.16C158.99 55.2 160.136 53.8667 161.203 52.16L162.643 52.64C162.003 54.6667 160.99 56.64 159.603 58.56C158.216 60.48 156.456 62.0533 154.323 63.28C152.19 64.5067 149.63 65.12 146.643 65.12C143.016 65.12 139.816 64.3467 137.043 62.8C134.27 61.2533 132.083 58.9067 130.483 55.76C128.936 52.6133 128.163 48.6133 128.163 43.76C128.163 38.8 128.99 34.6667 130.643 31.36C132.35 28.0533 134.67 25.6 137.603 24C140.59 22.3467 143.976 21.52 147.763 21.52Z" fill="white"/>
<path d="M183.276 21.52C185.516 21.52 187.462 21.8133 189.116 22.4C190.822 22.9333 192.049 23.4667 192.796 24C194.609 25.2267 195.729 24.4267 196.156 21.6H197.836C197.729 23.0933 197.649 24.9333 197.596 27.12C197.542 29.2533 197.516 32.1067 197.516 35.68H195.836C195.569 33.7067 195.062 31.76 194.316 29.84C193.569 27.92 192.476 26.3467 191.036 25.12C189.649 23.8933 187.836 23.28 185.596 23.28C184.049 23.28 182.742 23.7333 181.676 24.64C180.609 25.4933 180.076 26.7467 180.076 28.4C180.076 30 180.556 31.4133 181.516 32.64C182.476 33.8133 183.702 34.96 185.196 36.08C186.742 37.1467 188.342 38.2933 189.996 39.52C191.756 40.8533 193.356 42.1867 194.796 43.52C196.236 44.8 197.382 46.2133 198.236 47.76C199.089 49.3067 199.516 51.1467 199.516 53.28C199.516 55.68 198.822 57.7867 197.436 59.6C196.049 61.36 194.209 62.72 191.916 63.68C189.676 64.64 187.169 65.12 184.396 65.12C182.796 65.12 181.356 64.96 180.076 64.64C178.849 64.32 177.782 63.92 176.876 63.44C176.182 63.12 175.516 62.8267 174.876 62.56C174.289 62.24 173.729 61.9733 173.196 61.76C172.662 61.6 172.182 61.7867 171.756 62.32C171.382 62.8533 171.089 63.6 170.876 64.56H169.196C169.302 62.8533 169.382 60.7733 169.436 58.32C169.489 55.8667 169.516 52.6133 169.516 48.56H171.196C171.516 51.44 172.102 54 172.956 56.24C173.809 58.4267 174.956 60.16 176.396 61.44C177.889 62.6667 179.756 63.28 181.996 63.28C182.902 63.28 183.782 63.0933 184.636 62.72C185.489 62.3467 186.182 61.7333 186.716 60.88C187.302 60.0267 187.596 58.9333 187.596 57.6C187.596 55.2533 186.822 53.3067 185.276 51.76C183.782 50.2133 181.862 48.5333 179.516 46.72C177.809 45.3333 176.182 43.9733 174.636 42.64C173.142 41.2533 171.916 39.76 170.956 38.16C169.996 36.5067 169.516 34.64 169.516 32.56C169.516 30.16 170.156 28.1333 171.436 26.48C172.716 24.8267 174.396 23.6 176.476 22.8C178.609 21.9467 180.876 21.52 183.276 21.52Z" fill="white"/>
<path d="M228.869 7.2C230.949 7.2 232.629 7.36 233.909 7.68C235.189 7.94667 236.282 8.34667 237.189 8.88001C238.042 9.25334 238.815 9.73334 239.509 10.32C240.255 10.9067 240.869 11.6267 241.349 12.48C241.829 13.3333 242.069 14.2933 242.069 15.36C242.069 16.96 241.455 18.24 240.229 19.2C239.002 20.16 237.562 20.64 235.909 20.64C234.309 20.64 232.922 20.24 231.749 19.44C230.629 18.64 230.069 17.3867 230.069 15.68C230.069 14.3467 230.549 13.1467 231.509 12.08C232.469 10.96 233.695 10.2667 235.189 10C234.815 9.57334 234.122 9.22667 233.109 8.96001C232.149 8.69334 231.082 8.56001 229.909 8.56001C227.135 8.56001 224.762 9.44001 222.789 11.2C220.869 12.9067 219.909 15.52 219.909 19.04C219.909 20.2667 220.122 21.5733 220.549 22.96C220.975 24.3467 221.802 25.76 223.029 27.2C223.935 26.9867 224.762 26.8267 225.509 26.72C226.309 26.6133 226.975 26.56 227.509 26.56C228.469 26.56 229.189 26.7733 229.669 27.2C230.202 27.5733 230.469 28.08 230.469 28.72C230.469 29.2 230.255 29.6 229.829 29.92C229.402 30.24 228.869 30.4 228.229 30.4C227.322 30.4 226.389 30.16 225.429 29.68C224.469 29.1467 223.695 28.6933 223.109 28.32C220.602 29.6 218.549 31.2533 216.949 33.28C215.402 35.2533 214.629 37.92 214.629 41.28C214.629 44.8 215.589 47.7067 217.509 50C219.429 52.24 222.122 53.9467 225.589 55.12C229.109 56.24 233.242 56.8 237.989 56.8C240.655 56.8 243.295 56.5067 245.909 55.92C248.522 55.3333 250.869 54.4533 252.949 53.28C255.082 52.1067 256.789 50.6667 258.069 48.96C259.349 47.2 259.989 45.1733 259.989 42.88C259.989 42.0267 259.855 40.96 259.589 39.68C259.375 38.3467 258.815 37.04 257.909 35.76C257.002 34.4267 255.509 33.3333 253.429 32.48L253.989 31.76C256.869 32.6667 259.055 34.3733 260.549 36.88C262.042 39.3867 262.789 42.2667 262.789 45.52C262.789 49.2533 261.642 52.6133 259.349 55.6C257.055 58.5333 253.829 60.8533 249.669 62.56C245.562 64.2667 240.735 65.12 235.189 65.12C230.762 65.12 226.735 64.6667 223.109 63.76C219.535 62.8533 216.442 61.5467 213.829 59.84C211.269 58.08 209.269 55.9733 207.829 53.52C206.442 51.0667 205.749 48.2933 205.749 45.2C205.749 42.2133 206.362 39.68 207.589 37.6C208.869 35.4667 210.415 33.7333 212.229 32.4C214.042 31.0133 215.855 29.9467 217.669 29.2C219.482 28.4533 220.922 27.9467 221.989 27.68C220.335 26.9867 218.815 26.1867 217.429 25.28C216.095 24.32 215.002 23.2 214.149 21.92C213.349 20.64 212.949 19.2 212.949 17.6C212.949 15.8933 213.402 14.4 214.309 13.12C215.215 11.7867 216.415 10.6933 217.909 9.84C219.455 8.98667 221.162 8.34667 223.029 7.92C224.949 7.44 226.895 7.2 228.869 7.2ZM260.309 6.24C264.095 6.24 267.162 7.22667 269.509 9.2C271.855 11.1733 273.029 13.9467 273.029 17.52C273.029 20.24 272.362 22.5333 271.029 24.4C269.749 26.2667 267.882 27.7867 265.429 28.96C263.029 30.1333 260.149 31.0667 256.789 31.76C256.042 32.0267 255.109 32.3467 253.989 32.72C252.869 33.04 251.722 33.36 250.549 33.68C249.375 34 248.229 34.32 247.109 34.64C246.042 34.96 245.109 35.2267 244.309 35.44C240.149 36.3467 236.949 37.3867 234.709 38.56C232.469 39.68 231.349 41.2267 231.349 43.2C231.349 44.5333 231.775 45.68 232.629 46.64C233.535 47.6 234.655 48.3467 235.989 48.88C237.322 49.4133 238.655 49.68 239.989 49.68C240.362 49.68 240.762 49.6533 241.189 49.6C241.615 49.4933 242.015 49.3867 242.389 49.28C242.762 49.12 243.029 48.9867 243.189 48.88C241.855 48.4533 240.842 47.7867 240.149 46.88C239.509 45.92 239.189 44.8267 239.189 43.6C239.189 41.8933 239.802 40.5867 241.029 39.68C242.255 38.7733 243.775 38.32 245.589 38.32C247.509 38.32 249.002 38.8267 250.069 39.84C251.189 40.8533 251.749 42.16 251.749 43.76C251.749 45.4133 251.242 46.8 250.229 47.92C249.215 48.9867 247.855 49.7867 246.149 50.32C244.442 50.8 242.522 51.04 240.389 51.04C238.309 51.04 236.335 50.6667 234.469 49.92C232.655 49.1733 231.189 48.0533 230.069 46.56C229.002 45.0133 228.469 43.0933 228.469 40.8C228.469 37.9733 229.189 35.6267 230.629 33.76C232.069 31.84 234.122 30.2667 236.789 29.04C239.509 27.76 242.709 26.7733 246.389 26.08C247.509 25.8133 248.735 25.52 250.069 25.2C251.455 24.8267 252.869 24.4533 254.309 24.08C255.749 23.7067 257.082 23.3067 258.309 22.88C262.149 21.92 265.109 20.8533 267.189 19.68C269.322 18.5067 270.389 16.9333 270.389 14.96C270.389 13.52 269.935 12.2667 269.029 11.2C268.175 10.08 267.055 9.22667 265.669 8.64001C264.282 8 262.842 7.68 261.349 7.68C260.869 7.68 260.415 7.70667 259.989 7.76001C259.615 7.81334 259.295 7.92 259.029 8.08C260.362 8.56 261.349 9.28 261.989 10.24C262.629 11.2 262.949 12.16 262.949 13.12C262.949 14.7733 262.335 16.0533 261.109 16.96C259.882 17.8133 258.362 18.24 256.549 18.24C254.735 18.24 253.242 17.7867 252.069 16.88C250.895 15.92 250.309 14.6133 250.309 12.96C250.309 11.52 250.709 10.32 251.509 9.36001C252.362 8.34667 253.535 7.57334 255.029 7.04001C256.522 6.50667 258.282 6.24 260.309 6.24Z" fill="white"/>
<path d="M310.984 64V62.4C312.69 62.2933 313.97 62.08 314.824 61.76C315.677 61.44 316.237 60.8 316.504 59.84C316.824 58.88 316.984 57.44 316.984 55.52V15.84C316.984 13.8667 316.824 12.4267 316.504 11.52C316.237 10.56 315.65 9.92001 314.744 9.60001C313.89 9.22667 312.637 9.01334 310.984 8.96001V7.36001C312.424 7.41334 314.29 7.46667 316.584 7.52001C318.93 7.57334 321.25 7.6 323.544 7.6C325.997 7.6 328.29 7.57334 330.424 7.52001C332.61 7.46667 334.37 7.41334 335.704 7.36001V8.96001C333.997 9.01334 332.69 9.22667 331.784 9.60001C330.93 9.92001 330.37 10.56 330.104 11.52C329.837 12.4267 329.704 13.8667 329.704 15.84V55.52C329.704 57.44 329.837 58.88 330.104 59.84C330.424 60.8 331.01 61.44 331.864 61.76C332.717 62.08 333.997 62.2933 335.704 62.4V64C334.37 63.8933 332.61 63.84 330.424 63.84C328.29 63.7867 325.997 63.76 323.544 63.76C321.25 63.76 318.93 63.7867 316.584 63.84C314.29 63.84 312.424 63.8933 310.984 64ZM277.064 64V62.4C278.77 62.2933 280.05 62.08 280.904 61.76C281.757 61.44 282.317 60.8 282.584 59.84C282.904 58.88 283.064 57.44 283.064 55.52V15.84C283.064 13.8667 282.904 12.4267 282.584 11.52C282.317 10.56 281.73 9.92001 280.824 9.60001C279.97 9.22667 278.717 9.01334 277.064 8.96001V7.36001C278.45 7.41334 280.237 7.46667 282.424 7.52001C284.664 7.57334 287.09 7.6 289.704 7.6C291.944 7.6 294.157 7.57334 296.344 7.52001C298.53 7.46667 300.344 7.41334 301.784 7.36001V8.96001C300.077 9.01334 298.77 9.22667 297.864 9.60001C297.01 9.92001 296.45 10.56 296.184 11.52C295.917 12.4267 295.784 13.8667 295.784 15.84V55.52C295.784 57.44 295.917 58.88 296.184 59.84C296.504 60.8 297.09 61.44 297.944 61.76C298.797 62.08 300.077 62.2933 301.784 62.4V64C300.344 63.8933 298.53 63.84 296.344 63.84C294.157 63.7867 291.944 63.76 289.704 63.76C287.09 63.76 284.664 63.7867 282.424 63.84C280.237 63.84 278.45 63.8933 277.064 64ZM290.584 36.32V34.72H322.184V36.32H290.584Z" fill="white"/>
<path d="M350.819 64.56C348.419 64.56 346.419 64.1067 344.819 63.2C343.219 62.2933 342.046 61.0933 341.299 59.6C340.553 58.0533 340.179 56.3733 340.179 54.56C340.179 52.2667 340.686 50.4 341.699 48.96C342.766 47.52 344.126 46.3467 345.779 45.44C347.433 44.5333 349.166 43.7867 350.979 43.2C352.846 42.6133 354.606 42.0533 356.259 41.52C357.966 40.9333 359.326 40.2667 360.339 39.52C361.406 38.72 361.939 37.7067 361.939 36.48V30.24C361.939 28.8533 361.699 27.6267 361.219 26.56C360.793 25.44 360.099 24.5867 359.139 24C358.233 23.4133 357.033 23.12 355.539 23.12C354.473 23.12 353.406 23.28 352.339 23.6C351.273 23.8667 350.393 24.3467 349.699 25.04C351.193 25.5733 352.339 26.4 353.139 27.52C353.993 28.5867 354.419 29.8133 354.419 31.2C354.419 33.0133 353.779 34.4533 352.499 35.52C351.273 36.5867 349.806 37.12 348.099 37.12C346.179 37.12 344.713 36.5333 343.699 35.36C342.739 34.1333 342.259 32.6667 342.259 30.96C342.259 29.4133 342.633 28.1333 343.379 27.12C344.179 26.1067 345.273 25.1467 346.659 24.24C348.153 23.3867 349.939 22.72 352.019 22.24C354.153 21.76 356.446 21.52 358.899 21.52C361.353 21.52 363.566 21.7867 365.539 22.32C367.513 22.8 369.166 23.7067 370.499 25.04C371.726 26.2667 372.526 27.7867 372.899 29.6C373.273 31.36 373.459 33.6 373.459 36.32V58.08C373.459 59.4133 373.593 60.3467 373.859 60.88C374.126 61.36 374.579 61.6 375.219 61.6C375.699 61.6 376.153 61.4667 376.579 61.2C377.059 60.9333 377.566 60.6133 378.099 60.24L378.899 61.6C377.779 62.56 376.473 63.3067 374.979 63.84C373.539 64.32 371.913 64.56 370.099 64.56C368.126 64.56 366.553 64.2933 365.379 63.76C364.206 63.1733 363.353 62.4 362.819 61.44C362.339 60.48 362.099 59.36 362.099 58.08C360.819 60.1067 359.273 61.7067 357.459 62.88C355.646 64 353.433 64.56 350.819 64.56ZM356.499 59.44C357.566 59.44 358.526 59.2 359.379 58.72C360.286 58.1867 361.139 57.3333 361.939 56.16V39.76C361.459 40.56 360.793 41.28 359.939 41.92C359.086 42.56 358.179 43.2267 357.219 43.92C356.259 44.56 355.326 45.28 354.419 46.08C353.566 46.88 352.873 47.8667 352.339 49.04C351.806 50.2133 351.539 51.6267 351.539 53.28C351.539 55.36 351.993 56.9067 352.899 57.92C353.806 58.9333 355.006 59.44 356.499 59.44Z" fill="white"/>
<path d="M397.506 21.76V70.56C397.506 73.0667 398.146 74.72 399.426 75.52C400.706 76.3733 402.466 76.8 404.706 76.8V78.48C403.319 78.4267 401.399 78.3467 398.946 78.24C396.546 78.1867 393.986 78.16 391.266 78.16C389.292 78.16 387.346 78.1867 385.426 78.24C383.559 78.3467 382.146 78.4267 381.186 78.48V76.8C382.946 76.8 384.172 76.4267 384.866 75.68C385.612 74.9333 385.986 73.4933 385.986 71.36V31.36C385.986 28.96 385.612 27.2 384.866 26.08C384.119 24.9067 382.786 24.32 380.866 24.32V22.64C382.572 22.8 384.226 22.88 385.826 22.88C388.012 22.88 390.092 22.8 392.066 22.64C394.039 22.4267 395.852 22.1333 397.506 21.76ZM409.906 21.52C412.626 21.52 415.052 22.2667 417.186 23.76C419.319 25.2 421.026 27.4133 422.306 30.4C423.586 33.3333 424.226 37.0133 424.226 41.44C424.226 45.3333 423.772 48.7467 422.866 51.68C422.012 54.6133 420.759 57.0933 419.106 59.12C417.506 61.0933 415.559 62.5867 413.266 63.6C411.026 64.6133 408.492 65.12 405.666 65.12C403.586 65.12 401.692 64.7467 399.986 64C398.279 63.3067 396.972 62.2933 396.066 60.96L396.866 59.92C397.399 60.88 398.146 61.6267 399.106 62.16C400.119 62.6933 401.266 62.96 402.546 62.96C404.946 62.96 406.839 62.16 408.226 60.56C409.612 58.9067 410.599 56.6133 411.186 53.68C411.826 50.6933 412.146 47.1467 412.146 43.04C412.146 38.4533 411.852 34.8533 411.266 32.24C410.679 29.6267 409.879 27.76 408.866 26.64C407.852 25.52 406.626 24.96 405.186 24.96C403.266 24.96 401.506 25.7067 399.906 27.2C398.359 28.6933 397.479 30.8267 397.266 33.6L396.866 30.8C397.826 27.76 399.452 25.4667 401.746 23.92C404.092 22.32 406.812 21.52 409.906 21.52Z" fill="white"/>
<path d="M445.474 21.76V70.56C445.474 73.0667 446.114 74.72 447.394 75.52C448.674 76.3733 450.434 76.8 452.674 76.8V78.48C451.288 78.4267 449.368 78.3467 446.914 78.24C444.514 78.1867 441.954 78.16 439.234 78.16C437.261 78.16 435.314 78.1867 433.394 78.24C431.528 78.3467 430.114 78.4267 429.154 78.48V76.8C430.914 76.8 432.141 76.4267 432.834 75.68C433.581 74.9333 433.954 73.4933 433.954 71.36V31.36C433.954 28.96 433.581 27.2 432.834 26.08C432.088 24.9067 430.754 24.32 428.834 24.32V22.64C430.541 22.8 432.194 22.88 433.794 22.88C435.981 22.88 438.061 22.8 440.034 22.64C442.008 22.4267 443.821 22.1333 445.474 21.76ZM457.874 21.52C460.594 21.52 463.021 22.2667 465.154 23.76C467.288 25.2 468.994 27.4133 470.274 30.4C471.554 33.3333 472.194 37.0133 472.194 41.44C472.194 45.3333 471.741 48.7467 470.834 51.68C469.981 54.6133 468.728 57.0933 467.074 59.12C465.474 61.0933 463.528 62.5867 461.234 63.6C458.994 64.6133 456.461 65.12 453.634 65.12C451.554 65.12 449.661 64.7467 447.954 64C446.248 63.3067 444.941 62.2933 444.034 60.96L444.834 59.92C445.368 60.88 446.114 61.6267 447.074 62.16C448.088 62.6933 449.234 62.96 450.514 62.96C452.914 62.96 454.808 62.16 456.194 60.56C457.581 58.9067 458.568 56.6133 459.154 53.68C459.794 50.6933 460.114 47.1467 460.114 43.04C460.114 38.4533 459.821 34.8533 459.234 32.24C458.648 29.6267 457.848 27.76 456.834 26.64C455.821 25.52 454.594 24.96 453.154 24.96C451.234 24.96 449.474 25.7067 447.874 27.2C446.328 28.6933 445.448 30.8267 445.234 33.6L444.834 30.8C445.794 27.76 447.421 25.4667 449.714 23.92C452.061 22.32 454.781 21.52 457.874 21.52Z" fill="white"/>
<path d="M497.763 21.52C502.456 21.52 506.136 22.9067 508.803 25.68C511.47 28.4533 512.803 32.9867 512.803 39.28H486.483L486.323 37.76H502.723C502.776 35.1467 502.616 32.7467 502.243 30.56C501.87 28.32 501.283 26.5333 500.483 25.2C499.683 23.8667 498.616 23.2 497.283 23.2C495.416 23.2 493.816 24.3733 492.483 26.72C491.203 29.0667 490.43 32.96 490.163 38.4L490.403 38.88C490.35 39.52 490.296 40.1867 490.243 40.88C490.243 41.5733 490.243 42.2933 490.243 43.04C490.243 46.72 490.75 49.7067 491.763 52C492.83 54.2933 494.163 55.9733 495.763 57.04C497.363 58.0533 498.99 58.56 500.643 58.56C501.763 58.56 502.91 58.4 504.083 58.08C505.31 57.7067 506.536 57.0667 507.763 56.16C508.99 55.2 510.136 53.8667 511.203 52.16L512.643 52.64C512.003 54.6667 510.99 56.64 509.603 58.56C508.216 60.48 506.456 62.0533 504.323 63.28C502.19 64.5067 499.63 65.12 496.643 65.12C493.016 65.12 489.816 64.3467 487.043 62.8C484.27 61.2533 482.083 58.9067 480.483 55.76C478.936 52.6133 478.163 48.6133 478.163 43.76C478.163 38.8 478.99 34.6667 480.643 31.36C482.35 28.0533 484.67 25.6 487.603 24C490.59 22.3467 493.976 21.52 497.763 21.52Z" fill="white"/>
<path d="M546.727 21.52C548.967 21.52 550.78 21.8133 552.167 22.4C553.607 22.9333 554.727 23.68 555.527 24.64C556.38 25.6533 556.994 26.96 557.367 28.56C557.794 30.16 558.007 32.32 558.007 35.04V56.56C558.007 58.8 558.38 60.32 559.127 61.12C559.927 61.92 561.26 62.32 563.127 62.32V64C562.113 63.9467 560.593 63.8933 558.567 63.84C556.54 63.7333 554.54 63.68 552.567 63.68C550.54 63.68 548.54 63.7333 546.567 63.84C544.647 63.8933 543.18 63.9467 542.167 64V62.32C543.767 62.32 544.887 61.92 545.527 61.12C546.167 60.32 546.487 58.8 546.487 56.56V31.68C546.487 30.3467 546.354 29.2 546.087 28.24C545.82 27.2267 545.34 26.4533 544.647 25.92C543.954 25.3333 542.914 25.04 541.527 25.04C540.087 25.04 538.754 25.44 537.527 26.24C536.354 27.04 535.394 28.16 534.647 29.6C533.954 30.9867 533.607 32.56 533.607 34.32V56.56C533.607 58.8 533.927 60.32 534.567 61.12C535.26 61.92 536.38 62.32 537.927 62.32V64C536.967 63.9467 535.553 63.8933 533.687 63.84C531.873 63.7333 529.98 63.68 528.007 63.68C525.98 63.68 523.9 63.7333 521.767 63.84C519.634 63.8933 518.034 63.9467 516.967 64V62.32C518.834 62.32 520.14 61.92 520.887 61.12C521.687 60.32 522.087 58.8 522.087 56.56V31.36C522.087 28.96 521.714 27.2 520.967 26.08C520.274 24.9067 518.94 24.32 516.967 24.32V22.64C518.674 22.8 520.327 22.88 521.927 22.88C524.167 22.88 526.247 22.8 528.167 22.64C530.14 22.4267 531.954 22.1333 533.607 21.76V28.96C534.94 26.24 536.754 24.32 539.047 23.2C541.34 22.08 543.9 21.52 546.727 21.52Z" fill="white"/>
<path d="M576.508 2C578.748 2 580.507 2.56001 581.787 3.68001C583.121 4.74667 583.787 6.24001 583.787 8.16001C583.787 10.08 583.121 11.6 581.787 12.72C580.507 13.7867 578.748 14.32 576.508 14.32C574.268 14.32 572.481 13.7867 571.147 12.72C569.867 11.6 569.227 10.08 569.227 8.16001C569.227 6.24001 569.867 4.74667 571.147 3.68001C572.481 2.56001 574.268 2 576.508 2ZM582.747 21.76V56.56C582.747 58.8 583.121 60.32 583.867 61.12C584.667 61.92 586.001 62.32 587.867 62.32V64C586.907 63.9467 585.414 63.8933 583.387 63.84C581.361 63.7333 579.307 63.68 577.227 63.68C575.147 63.68 573.041 63.7333 570.907 63.84C568.774 63.8933 567.174 63.9467 566.107 64V62.32C567.974 62.32 569.281 61.92 570.027 61.12C570.827 60.32 571.227 58.8 571.227 56.56V31.36C571.227 28.96 570.854 27.2 570.107 26.08C569.414 24.9067 568.081 24.32 566.107 24.32V22.64C567.814 22.8 569.468 22.88 571.068 22.88C573.308 22.88 575.387 22.8 577.307 22.64C579.281 22.4267 581.094 22.1333 582.747 21.76Z" fill="white"/>
<path d="M621.102 21.52C623.342 21.52 625.155 21.8133 626.542 22.4C627.982 22.9333 629.102 23.68 629.902 24.64C630.755 25.6533 631.369 26.96 631.742 28.56C632.169 30.16 632.382 32.32 632.382 35.04V56.56C632.382 58.8 632.755 60.32 633.502 61.12C634.302 61.92 635.635 62.32 637.502 62.32V64C636.488 63.9467 634.968 63.8933 632.942 63.84C630.915 63.7333 628.915 63.68 626.942 63.68C624.915 63.68 622.915 63.7333 620.942 63.84C619.022 63.8933 617.555 63.9467 616.542 64V62.32C618.142 62.32 619.262 61.92 619.902 61.12C620.542 60.32 620.862 58.8 620.862 56.56V31.68C620.862 30.3467 620.729 29.2 620.462 28.24C620.195 27.2267 619.715 26.4533 619.022 25.92C618.329 25.3333 617.289 25.04 615.902 25.04C614.462 25.04 613.129 25.44 611.902 26.24C610.729 27.04 609.769 28.16 609.022 29.6C608.329 30.9867 607.982 32.56 607.982 34.32V56.56C607.982 58.8 608.302 60.32 608.942 61.12C609.635 61.92 610.755 62.32 612.302 62.32V64C611.342 63.9467 609.928 63.8933 608.062 63.84C606.248 63.7333 604.355 63.68 602.382 63.68C600.355 63.68 598.275 63.7333 596.142 63.84C594.009 63.8933 592.409 63.9467 591.342 64V62.32C593.209 62.32 594.515 61.92 595.262 61.12C596.062 60.32 596.462 58.8 596.462 56.56V31.36C596.462 28.96 596.089 27.2 595.342 26.08C594.649 24.9067 593.315 24.32 591.342 24.32V22.64C593.049 22.8 594.702 22.88 596.302 22.88C598.542 22.88 600.622 22.8 602.542 22.64C604.515 22.4267 606.329 22.1333 607.982 21.76V28.96C609.315 26.24 611.129 24.32 613.422 23.2C615.715 22.08 618.275 21.52 621.102 21.52Z" fill="white"/>
<path d="M655.456 79.04C652.149 79.04 649.189 78.7467 646.576 78.16C644.016 77.6267 641.989 76.7733 640.496 75.6C639.056 74.48 638.336 73.0933 638.336 71.44C638.336 69.7867 639.082 68.2933 640.576 66.96C642.069 65.68 644.282 64.6667 647.216 63.92L647.936 65.2C646.922 66 646.176 66.8533 645.696 67.76C645.269 68.72 645.056 69.7067 645.056 70.72C645.056 72.96 646.069 74.6667 648.096 75.84C650.176 77.0667 652.976 77.68 656.496 77.68C658.896 77.68 661.029 77.36 662.896 76.72C664.816 76.08 666.309 75.12 667.376 73.84C668.496 72.56 669.056 70.9867 669.056 69.12C669.056 67.52 668.469 66.16 667.296 65.04C666.122 63.9733 663.776 63.44 660.256 63.44H655.296C653.109 63.44 651.189 63.2 649.536 62.72C647.936 62.24 646.682 61.4933 645.776 60.48C644.869 59.4133 644.416 58.08 644.416 56.48C644.416 54.24 645.296 52.2667 647.056 50.56C648.816 48.8533 651.429 47.2533 654.896 45.76L655.696 46.4C654.682 47.04 653.722 47.7333 652.816 48.48C651.962 49.1733 651.536 50.08 651.536 51.2C651.536 52.9067 652.602 53.76 654.736 53.76H663.456C666.389 53.76 669.002 54.1067 671.296 54.8C673.642 55.4933 675.482 56.64 676.816 58.24C678.202 59.7867 678.896 61.8133 678.896 64.32C678.896 66.9333 678.042 69.36 676.336 71.6C674.682 73.84 672.122 75.6267 668.656 76.96C665.189 78.3467 660.789 79.04 655.456 79.04ZM656.256 46.96C653.216 46.96 650.496 46.5067 648.096 45.6C645.696 44.6933 643.802 43.3067 642.416 41.44C641.029 39.5733 640.336 37.1733 640.336 34.24C640.336 31.3067 641.029 28.9067 642.416 27.04C643.802 25.12 645.696 23.7333 648.096 22.88C650.496 21.9733 653.216 21.52 656.256 21.52C659.296 21.52 662.016 21.9733 664.416 22.88C666.816 23.7333 668.709 25.12 670.096 27.04C671.482 28.9067 672.176 31.3067 672.176 34.24C672.176 37.1733 671.482 39.5733 670.096 41.44C668.709 43.3067 666.816 44.6933 664.416 45.6C662.016 46.5067 659.296 46.96 656.256 46.96ZM656.256 45.52C657.696 45.52 658.816 44.72 659.616 43.12C660.416 41.4667 660.816 38.5067 660.816 34.24C660.816 29.9733 660.416 27.04 659.616 25.44C658.816 23.7867 657.696 22.96 656.256 22.96C654.869 22.96 653.749 23.7867 652.896 25.44C652.096 27.04 651.696 29.9733 651.696 34.24C651.696 38.5067 652.096 41.4667 652.896 43.12C653.749 44.72 654.869 45.52 656.256 45.52ZM668.736 28.4L667.136 27.84C667.936 25.76 669.216 24.0267 670.976 22.64C672.789 21.2533 674.736 20.56 676.816 20.56C678.522 20.56 679.802 21.04 680.656 22C681.562 22.9067 682.016 24.1067 682.016 25.6C682.016 27.2 681.589 28.4 680.736 29.2C679.882 29.9467 678.922 30.32 677.856 30.32C676.949 30.32 676.096 30 675.296 29.36C674.549 28.72 674.122 27.76 674.016 26.48C673.909 25.1467 674.362 23.44 675.376 21.36L675.936 21.84C673.909 22.5867 672.389 23.4667 671.376 24.48C670.362 25.44 669.482 26.7467 668.736 28.4Z" fill="white"/>
<path d="M699.369 21.52C701.609 21.52 703.556 21.8133 705.209 22.4C706.916 22.9333 708.143 23.4667 708.889 24C710.703 25.2267 711.823 24.4267 712.249 21.6H713.929C713.823 23.0933 713.743 24.9333 713.689 27.12C713.636 29.2533 713.609 32.1067 713.609 35.68H711.929C711.663 33.7067 711.156 31.76 710.409 29.84C709.663 27.92 708.569 26.3467 707.129 25.12C705.743 23.8933 703.929 23.28 701.689 23.28C700.143 23.28 698.836 23.7333 697.769 24.64C696.703 25.4933 696.169 26.7467 696.169 28.4C696.169 30 696.649 31.4133 697.609 32.64C698.569 33.8133 699.796 34.96 701.289 36.08C702.836 37.1467 704.436 38.2933 706.089 39.52C707.849 40.8533 709.449 42.1867 710.889 43.52C712.329 44.8 713.476 46.2133 714.329 47.76C715.183 49.3067 715.609 51.1467 715.609 53.28C715.609 55.68 714.916 57.7867 713.529 59.6C712.143 61.36 710.303 62.72 708.009 63.68C705.769 64.64 703.263 65.12 700.489 65.12C698.889 65.12 697.449 64.96 696.169 64.64C694.943 64.32 693.876 63.92 692.969 63.44C692.276 63.12 691.609 62.8267 690.969 62.56C690.383 62.24 689.823 61.9733 689.289 61.76C688.756 61.6 688.276 61.7867 687.849 62.32C687.476 62.8533 687.183 63.6 686.969 64.56H685.289C685.396 62.8533 685.476 60.7733 685.529 58.32C685.583 55.8667 685.609 52.6133 685.609 48.56H687.289C687.609 51.44 688.196 54 689.049 56.24C689.903 58.4267 691.049 60.16 692.489 61.44C693.983 62.6667 695.849 63.28 698.089 63.28C698.996 63.28 699.876 63.0933 700.729 62.72C701.583 62.3467 702.276 61.7333 702.809 60.88C703.396 60.0267 703.689 58.9333 703.689 57.6C703.689 55.2533 702.916 53.3067 701.369 51.76C699.876 50.2133 697.956 48.5333 695.609 46.72C693.903 45.3333 692.276 43.9733 690.729 42.64C689.236 41.2533 688.009 39.76 687.049 38.16C686.089 36.5067 685.609 34.64 685.609 32.56C685.609 30.16 686.249 28.1333 687.529 26.48C688.809 24.8267 690.489 23.6 692.569 22.8C694.703 21.9467 696.969 21.52 699.369 21.52Z" fill="white"/>
<path d="M56.24 7.36001V8.96001C55.0666 9.38667 53.8133 10.32 52.48 11.76C51.2 13.2 50 15.44 48.88 18.48L32 64.16C31.5733 64.1067 31.12 64.08 30.64 64.08C30.16 64.08 29.68 64.08 29.2 64.08C28.7733 64.08 28.32 64.08 27.84 64.08C27.36 64.08 26.9066 64.1067 26.48 64.16L6.07998 14.08C5.33331 12.16 4.50664 10.8533 3.59998 10.16C2.69331 9.41334 1.83998 9.01334 1.03998 8.96001V7.36001C2.63998 7.41334 4.50664 7.46667 6.63998 7.52001C8.82665 7.57334 11.0133 7.6 13.2 7.6C15.6533 7.6 17.9466 7.57334 20.08 7.52001C22.2666 7.46667 24.0266 7.41334 25.36 7.36001V8.96001C23.6533 9.01334 22.32 9.22667 21.36 9.60001C20.4 9.92001 19.8666 10.56 19.76 11.52C19.6533 12.4267 19.9733 13.8133 20.72 15.68L35.28 52.72L33.6 54.72L44.64 24.96C46.08 20.96 46.8266 17.8133 46.88 15.52C46.9333 13.2267 46.3733 11.5733 45.2 10.56C44.0266 9.54667 42.3466 9.01334 40.16 8.96001V7.36001C41.9733 7.41334 43.68 7.46667 45.28 7.52001C46.88 7.57334 48.5066 7.6 50.16 7.6C51.3333 7.6 52.4266 7.57334 53.44 7.52001C54.5066 7.46667 55.44 7.41334 56.24 7.36001Z" stroke="#724D31" stroke-width="2" mask="url(#path-1-outside-1_1_652)"/>
<path d="M65.4137 2C67.6537 2 69.4137 2.56001 70.6937 3.68001C72.0271 4.74667 72.6937 6.24001 72.6937 8.16001C72.6937 10.08 72.0271 11.6 70.6937 12.72C69.4137 13.7867 67.6537 14.32 65.4137 14.32C63.1737 14.32 61.3871 13.7867 60.0537 12.72C58.7737 11.6 58.1337 10.08 58.1337 8.16001C58.1337 6.24001 58.7737 4.74667 60.0537 3.68001C61.3871 2.56001 63.1737 2 65.4137 2ZM71.6537 21.76V56.56C71.6537 58.8 72.0271 60.32 72.7737 61.12C73.5737 61.92 74.9071 62.32 76.7737 62.32V64C75.8137 63.9467 74.3204 63.8933 72.2937 63.84C70.2671 63.7333 68.2137 63.68 66.1337 63.68C64.0537 63.68 61.9471 63.7333 59.8137 63.84C57.6804 63.8933 56.0804 63.9467 55.0137 64V62.32C56.8804 62.32 58.1871 61.92 58.9337 61.12C59.7337 60.32 60.1337 58.8 60.1337 56.56V31.36C60.1337 28.96 59.7604 27.2 59.0137 26.08C58.3204 24.9067 56.9871 24.32 55.0137 24.32V22.64C56.7204 22.8 58.3737 22.88 59.9737 22.88C62.2137 22.88 64.2937 22.8 66.2137 22.64C68.1871 22.4267 70.0004 22.1333 71.6537 21.76Z" stroke="#724D31" stroke-width="2" mask="url(#path-1-outside-1_1_652)"/>
<path d="M107.688 21.52C111.848 21.52 115.288 23.2267 118.008 26.64C120.781 30 122.168 35.2 122.168 42.24C122.168 47.7867 121.315 52.24 119.608 55.6C117.955 58.96 115.741 61.3867 112.968 62.88C110.195 64.3733 107.155 65.12 103.848 65.12C101.661 65.12 99.6348 64.7467 97.7681 64C95.9014 63.2533 94.3014 62.0267 92.9681 60.32L94.0881 59.92C95.0481 61.0933 96.1681 61.9733 97.4481 62.56C98.7814 63.1467 100.088 63.44 101.368 63.44C104.301 63.44 106.488 61.7867 107.928 58.48C109.368 55.1733 110.088 50.1333 110.088 43.36C110.088 38.7733 109.795 35.1467 109.208 32.48C108.675 29.76 107.875 27.84 106.808 26.72C105.741 25.5467 104.461 24.96 102.968 24.96C101.101 24.96 99.3948 25.7333 97.8481 27.28C96.3014 28.7733 95.4214 30.88 95.2081 33.6L94.8081 30.8C95.7681 27.76 97.3948 25.4667 99.6881 23.92C101.981 22.32 104.648 21.52 107.688 21.52ZM95.4481 1.44V62.4C94.1148 62.1867 92.7548 62.1867 91.3681 62.4C89.9814 62.6133 88.7014 62.9867 87.5281 63.52C86.3548 64 85.3681 64.5867 84.5681 65.28L83.3681 64.56C83.5814 63.8133 83.7148 63.0667 83.7681 62.32C83.8748 61.5733 83.9281 60.8267 83.9281 60.08V11.04C83.9281 8.64001 83.5548 6.88001 82.8081 5.76C82.1148 4.58667 80.7814 4 78.8081 4V2.32001C80.5148 2.48001 82.1681 2.56001 83.7681 2.56001C85.9548 2.56001 88.0348 2.48001 90.0081 2.32001C91.9814 2.10667 93.7948 1.81334 95.4481 1.44Z" stroke="#724D31" stroke-width="2" mask="url(#path-1-outside-1_1_652)"/>
<path d="M147.763 21.52C152.456 21.52 156.136 22.9067 158.803 25.68C161.47 28.4533 162.803 32.9867 162.803 39.28H136.483L136.323 37.76H152.723C152.776 35.1467 152.616 32.7467 152.243 30.56C151.87 28.32 151.283 26.5333 150.483 25.2C149.683 23.8667 148.616 23.2 147.283 23.2C145.416 23.2 143.816 24.3733 142.483 26.72C141.203 29.0667 140.43 32.96 140.163 38.4L140.403 38.88C140.35 39.52 140.296 40.1867 140.243 40.88C140.243 41.5733 140.243 42.2933 140.243 43.04C140.243 46.72 140.75 49.7067 141.763 52C142.83 54.2933 144.163 55.9733 145.763 57.04C147.363 58.0533 148.99 58.56 150.643 58.56C151.763 58.56 152.91 58.4 154.083 58.08C155.31 57.7067 156.536 57.0667 157.763 56.16C158.99 55.2 160.136 53.8667 161.203 52.16L162.643 52.64C162.003 54.6667 160.99 56.64 159.603 58.56C158.216 60.48 156.456 62.0533 154.323 63.28C152.19 64.5067 149.63 65.12 146.643 65.12C143.016 65.12 139.816 64.3467 137.043 62.8C134.27 61.2533 132.083 58.9067 130.483 55.76C128.936 52.6133 128.163 48.6133 128.163 43.76C128.163 38.8 128.99 34.6667 130.643 31.36C132.35 28.0533 134.67 25.6 137.603 24C140.59 22.3467 143.976 21.52 147.763 21.52Z" stroke="#724D31" stroke-width="2" mask="url(#path-1-outside-1_1_652)"/>
<path d="M183.276 21.52C185.516 21.52 187.462 21.8133 189.116 22.4C190.822 22.9333 192.049 23.4667 192.796 24C194.609 25.2267 195.729 24.4267 196.156 21.6H197.836C197.729 23.0933 197.649 24.9333 197.596 27.12C197.542 29.2533 197.516 32.1067 197.516 35.68H195.836C195.569 33.7067 195.062 31.76 194.316 29.84C193.569 27.92 192.476 26.3467 191.036 25.12C189.649 23.8933 187.836 23.28 185.596 23.28C184.049 23.28 182.742 23.7333 181.676 24.64C180.609 25.4933 180.076 26.7467 180.076 28.4C180.076 30 180.556 31.4133 181.516 32.64C182.476 33.8133 183.702 34.96 185.196 36.08C186.742 37.1467 188.342 38.2933 189.996 39.52C191.756 40.8533 193.356 42.1867 194.796 43.52C196.236 44.8 197.382 46.2133 198.236 47.76C199.089 49.3067 199.516 51.1467 199.516 53.28C199.516 55.68 198.822 57.7867 197.436 59.6C196.049 61.36 194.209 62.72 191.916 63.68C189.676 64.64 187.169 65.12 184.396 65.12C182.796 65.12 181.356 64.96 180.076 64.64C178.849 64.32 177.782 63.92 176.876 63.44C176.182 63.12 175.516 62.8267 174.876 62.56C174.289 62.24 173.729 61.9733 173.196 61.76C172.662 61.6 172.182 61.7867 171.756 62.32C171.382 62.8533 171.089 63.6 170.876 64.56H169.196C169.302 62.8533 169.382 60.7733 169.436 58.32C169.489 55.8667 169.516 52.6133 169.516 48.56H171.196C171.516 51.44 172.102 54 172.956 56.24C173.809 58.4267 174.956 60.16 176.396 61.44C177.889 62.6667 179.756 63.28 181.996 63.28C182.902 63.28 183.782 63.0933 184.636 62.72C185.489 62.3467 186.182 61.7333 186.716 60.88C187.302 60.0267 187.596 58.9333 187.596 57.6C187.596 55.2533 186.822 53.3067 185.276 51.76C183.782 50.2133 181.862 48.5333 179.516 46.72C177.809 45.3333 176.182 43.9733 174.636 42.64C173.142 41.2533 171.916 39.76 170.956 38.16C169.996 36.5067 169.516 34.64 169.516 32.56C169.516 30.16 170.156 28.1333 171.436 26.48C172.716 24.8267 174.396 23.6 176.476 22.8C178.609 21.9467 180.876 21.52 183.276 21.52Z" stroke="#724D31" stroke-width="2" mask="url(#path-1-outside-1_1_652)"/>
<path d="M228.869 7.2C230.949 7.2 232.629 7.36 233.909 7.68C235.189 7.94667 236.282 8.34667 237.189 8.88001C238.042 9.25334 238.815 9.73334 239.509 10.32C240.255 10.9067 240.869 11.6267 241.349 12.48C241.829 13.3333 242.069 14.2933 242.069 15.36C242.069 16.96 241.455 18.24 240.229 19.2C239.002 20.16 237.562 20.64 235.909 20.64C234.309 20.64 232.922 20.24 231.749 19.44C230.629 18.64 230.069 17.3867 230.069 15.68C230.069 14.3467 230.549 13.1467 231.509 12.08C232.469 10.96 233.695 10.2667 235.189 10C234.815 9.57334 234.122 9.22667 233.109 8.96001C232.149 8.69334 231.082 8.56001 229.909 8.56001C227.135 8.56001 224.762 9.44001 222.789 11.2C220.869 12.9067 219.909 15.52 219.909 19.04C219.909 20.2667 220.122 21.5733 220.549 22.96C220.975 24.3467 221.802 25.76 223.029 27.2C223.935 26.9867 224.762 26.8267 225.509 26.72C226.309 26.6133 226.975 26.56 227.509 26.56C228.469 26.56 229.189 26.7733 229.669 27.2C230.202 27.5733 230.469 28.08 230.469 28.72C230.469 29.2 230.255 29.6 229.829 29.92C229.402 30.24 228.869 30.4 228.229 30.4C227.322 30.4 226.389 30.16 225.429 29.68C224.469 29.1467 223.695 28.6933 223.109 28.32C220.602 29.6 218.549 31.2533 216.949 33.28C215.402 35.2533 214.629 37.92 214.629 41.28C214.629 44.8 215.589 47.7067 217.509 50C219.429 52.24 222.122 53.9467 225.589 55.12C229.109 56.24 233.242 56.8 237.989 56.8C240.655 56.8 243.295 56.5067 245.909 55.92C248.522 55.3333 250.869 54.4533 252.949 53.28C255.082 52.1067 256.789 50.6667 258.069 48.96C259.349 47.2 259.989 45.1733 259.989 42.88C259.989 42.0267 259.855 40.96 259.589 39.68C259.375 38.3467 258.815 37.04 257.909 35.76C257.002 34.4267 255.509 33.3333 253.429 32.48L253.989 31.76C256.869 32.6667 259.055 34.3733 260.549 36.88C262.042 39.3867 262.789 42.2667 262.789 45.52C262.789 49.2533 261.642 52.6133 259.349 55.6C257.055 58.5333 253.829 60.8533 249.669 62.56C245.562 64.2667 240.735 65.12 235.189 65.12C230.762 65.12 226.735 64.6667 223.109 63.76C219.535 62.8533 216.442 61.5467 213.829 59.84C211.269 58.08 209.269 55.9733 207.829 53.52C206.442 51.0667 205.749 48.2933 205.749 45.2C205.749 42.2133 206.362 39.68 207.589 37.6C208.869 35.4667 210.415 33.7333 212.229 32.4C214.042 31.0133 215.855 29.9467 217.669 29.2C219.482 28.4533 220.922 27.9467 221.989 27.68C220.335 26.9867 218.815 26.1867 217.429 25.28C216.095 24.32 215.002 23.2 214.149 21.92C213.349 20.64 212.949 19.2 212.949 17.6C212.949 15.8933 213.402 14.4 214.309 13.12C215.215 11.7867 216.415 10.6933 217.909 9.84C219.455 8.98667 221.162 8.34667 223.029 7.92C224.949 7.44 226.895 7.2 228.869 7.2ZM260.309 6.24C264.095 6.24 267.162 7.22667 269.509 9.2C271.855 11.1733 273.029 13.9467 273.029 17.52C273.029 20.24 272.362 22.5333 271.029 24.4C269.749 26.2667 267.882 27.7867 265.429 28.96C263.029 30.1333 260.149 31.0667 256.789 31.76C256.042 32.0267 255.109 32.3467 253.989 32.72C252.869 33.04 251.722 33.36 250.549 33.68C249.375 34 248.229 34.32 247.109 34.64C246.042 34.96 245.109 35.2267 244.309 35.44C240.149 36.3467 236.949 37.3867 234.709 38.56C232.469 39.68 231.349 41.2267 231.349 43.2C231.349 44.5333 231.775 45.68 232.629 46.64C233.535 47.6 234.655 48.3467 235.989 48.88C237.322 49.4133 238.655 49.68 239.989 49.68C240.362 49.68 240.762 49.6533 241.189 49.6C241.615 49.4933 242.015 49.3867 242.389 49.28C242.762 49.12 243.029 48.9867 243.189 48.88C241.855 48.4533 240.842 47.7867 240.149 46.88C239.509 45.92 239.189 44.8267 239.189 43.6C239.189 41.8933 239.802 40.5867 241.029 39.68C242.255 38.7733 243.775 38.32 245.589 38.32C247.509 38.32 249.002 38.8267 250.069 39.84C251.189 40.8533 251.749 42.16 251.749 43.76C251.749 45.4133 251.242 46.8 250.229 47.92C249.215 48.9867 247.855 49.7867 246.149 50.32C244.442 50.8 242.522 51.04 240.389 51.04C238.309 51.04 236.335 50.6667 234.469 49.92C232.655 49.1733 231.189 48.0533 230.069 46.56C229.002 45.0133 228.469 43.0933 228.469 40.8C228.469 37.9733 229.189 35.6267 230.629 33.76C232.069 31.84 234.122 30.2667 236.789 29.04C239.509 27.76 242.709 26.7733 246.389 26.08C247.509 25.8133 248.735 25.52 250.069 25.2C251.455 24.8267 252.869 24.4533 254.309 24.08C255.749 23.7067 257.082 23.3067 258.309 22.88C262.149 21.92 265.109 20.8533 267.189 19.68C269.322 18.5067 270.389 16.9333 270.389 14.96C270.389 13.52 269.935 12.2667 269.029 11.2C268.175 10.08 267.055 9.22667 265.669 8.64001C264.282 8 262.842 7.68 261.349 7.68C260.869 7.68 260.415 7.70667 259.989 7.76001C259.615 7.81334 259.295 7.92 259.029 8.08C260.362 8.56 261.349 9.28 261.989 10.24C262.629 11.2 262.949 12.16 262.949 13.12C262.949 14.7733 262.335 16.0533 261.109 16.96C259.882 17.8133 258.362 18.24 256.549 18.24C254.735 18.24 253.242 17.7867 252.069 16.88C250.895 15.92 250.309 14.6133 250.309 12.96C250.309 11.52 250.709 10.32 251.509 9.36001C252.362 8.34667 253.535 7.57334 255.029 7.04001C256.522 6.50667 258.282 6.24 260.309 6.24Z" stroke="#724D31" stroke-width="2" mask="url(#path-1-outside-1_1_652)"/>
<path d="M310.984 64V62.4C312.69 62.2933 313.97 62.08 314.824 61.76C315.677 61.44 316.237 60.8 316.504 59.84C316.824 58.88 316.984 57.44 316.984 55.52V15.84C316.984 13.8667 316.824 12.4267 316.504 11.52C316.237 10.56 315.65 9.92001 314.744 9.60001C313.89 9.22667 312.637 9.01334 310.984 8.96001V7.36001C312.424 7.41334 314.29 7.46667 316.584 7.52001C318.93 7.57334 321.25 7.6 323.544 7.6C325.997 7.6 328.29 7.57334 330.424 7.52001C332.61 7.46667 334.37 7.41334 335.704 7.36001V8.96001C333.997 9.01334 332.69 9.22667 331.784 9.60001C330.93 9.92001 330.37 10.56 330.104 11.52C329.837 12.4267 329.704 13.8667 329.704 15.84V55.52C329.704 57.44 329.837 58.88 330.104 59.84C330.424 60.8 331.01 61.44 331.864 61.76C332.717 62.08 333.997 62.2933 335.704 62.4V64C334.37 63.8933 332.61 63.84 330.424 63.84C328.29 63.7867 325.997 63.76 323.544 63.76C321.25 63.76 318.93 63.7867 316.584 63.84C314.29 63.84 312.424 63.8933 310.984 64ZM277.064 64V62.4C278.77 62.2933 280.05 62.08 280.904 61.76C281.757 61.44 282.317 60.8 282.584 59.84C282.904 58.88 283.064 57.44 283.064 55.52V15.84C283.064 13.8667 282.904 12.4267 282.584 11.52C282.317 10.56 281.73 9.92001 280.824 9.60001C279.97 9.22667 278.717 9.01334 277.064 8.96001V7.36001C278.45 7.41334 280.237 7.46667 282.424 7.52001C284.664 7.57334 287.09 7.6 289.704 7.6C291.944 7.6 294.157 7.57334 296.344 7.52001C298.53 7.46667 300.344 7.41334 301.784 7.36001V8.96001C300.077 9.01334 298.77 9.22667 297.864 9.60001C297.01 9.92001 296.45 10.56 296.184 11.52C295.917 12.4267 295.784 13.8667 295.784 15.84V55.52C295.784 57.44 295.917 58.88 296.184 59.84C296.504 60.8 297.09 61.44 297.944 61.76C298.797 62.08 300.077 62.2933 301.784 62.4V64C300.344 63.8933 298.53 63.84 296.344 63.84C294.157 63.7867 291.944 63.76 289.704 63.76C287.09 63.76 284.664 63.7867 282.424 63.84C280.237 63.84 278.45 63.8933 277.064 64ZM290.584 36.32V34.72H322.184V36.32H290.584Z" stroke="#724D31" stroke-width="2" mask="url(#path-1-outside-1_1_652)"/>
<path d="M350.819 64.56C348.419 64.56 346.419 64.1067 344.819 63.2C343.219 62.2933 342.046 61.0933 341.299 59.6C340.553 58.0533 340.179 56.3733 340.179 54.56C340.179 52.2667 340.686 50.4 341.699 48.96C342.766 47.52 344.126 46.3467 345.779 45.44C347.433 44.5333 349.166 43.7867 350.979 43.2C352.846 42.6133 354.606 42.0533 356.259 41.52C357.966 40.9333 359.326 40.2667 360.339 39.52C361.406 38.72 361.939 37.7067 361.939 36.48V30.24C361.939 28.8533 361.699 27.6267 361.219 26.56C360.793 25.44 360.099 24.5867 359.139 24C358.233 23.4133 357.033 23.12 355.539 23.12C354.473 23.12 353.406 23.28 352.339 23.6C351.273 23.8667 350.393 24.3467 349.699 25.04C351.193 25.5733 352.339 26.4 353.139 27.52C353.993 28.5867 354.419 29.8133 354.419 31.2C354.419 33.0133 353.779 34.4533 352.499 35.52C351.273 36.5867 349.806 37.12 348.099 37.12C346.179 37.12 344.713 36.5333 343.699 35.36C342.739 34.1333 342.259 32.6667 342.259 30.96C342.259 29.4133 342.633 28.1333 343.379 27.12C344.179 26.1067 345.273 25.1467 346.659 24.24C348.153 23.3867 349.939 22.72 352.019 22.24C354.153 21.76 356.446 21.52 358.899 21.52C361.353 21.52 363.566 21.7867 365.539 22.32C367.513 22.8 369.166 23.7067 370.499 25.04C371.726 26.2667 372.526 27.7867 372.899 29.6C373.273 31.36 373.459 33.6 373.459 36.32V58.08C373.459 59.4133 373.593 60.3467 373.859 60.88C374.126 61.36 374.579 61.6 375.219 61.6C375.699 61.6 376.153 61.4667 376.579 61.2C377.059 60.9333 377.566 60.6133 378.099 60.24L378.899 61.6C377.779 62.56 376.473 63.3067 374.979 63.84C373.539 64.32 371.913 64.56 370.099 64.56C368.126 64.56 366.553 64.2933 365.379 63.76C364.206 63.1733 363.353 62.4 362.819 61.44C362.339 60.48 362.099 59.36 362.099 58.08C360.819 60.1067 359.273 61.7067 357.459 62.88C355.646 64 353.433 64.56 350.819 64.56ZM356.499 59.44C357.566 59.44 358.526 59.2 359.379 58.72C360.286 58.1867 361.139 57.3333 361.939 56.16V39.76C361.459 40.56 360.793 41.28 359.939 41.92C359.086 42.56 358.179 43.2267 357.219 43.92C356.259 44.56 355.326 45.28 354.419 46.08C353.566 46.88 352.873 47.8667 352.339 49.04C351.806 50.2133 351.539 51.6267 351.539 53.28C351.539 55.36 351.993 56.9067 352.899 57.92C353.806 58.9333 355.006 59.44 356.499 59.44Z" stroke="#724D31" stroke-width="2" mask="url(#path-1-outside-1_1_652)"/>
<path d="M397.506 21.76V70.56C397.506 73.0667 398.146 74.72 399.426 75.52C400.706 76.3733 402.466 76.8 404.706 76.8V78.48C403.319 78.4267 401.399 78.3467 398.946 78.24C396.546 78.1867 393.986 78.16 391.266 78.16C389.292 78.16 387.346 78.1867 385.426 78.24C383.559 78.3467 382.146 78.4267 381.186 78.48V76.8C382.946 76.8 384.172 76.4267 384.866 75.68C385.612 74.9333 385.986 73.4933 385.986 71.36V31.36C385.986 28.96 385.612 27.2 384.866 26.08C384.119 24.9067 382.786 24.32 380.866 24.32V22.64C382.572 22.8 384.226 22.88 385.826 22.88C388.012 22.88 390.092 22.8 392.066 22.64C394.039 22.4267 395.852 22.1333 397.506 21.76ZM409.906 21.52C412.626 21.52 415.052 22.2667 417.186 23.76C419.319 25.2 421.026 27.4133 422.306 30.4C423.586 33.3333 424.226 37.0133 424.226 41.44C424.226 45.3333 423.772 48.7467 422.866 51.68C422.012 54.6133 420.759 57.0933 419.106 59.12C417.506 61.0933 415.559 62.5867 413.266 63.6C411.026 64.6133 408.492 65.12 405.666 65.12C403.586 65.12 401.692 64.7467 399.986 64C398.279 63.3067 396.972 62.2933 396.066 60.96L396.866 59.92C397.399 60.88 398.146 61.6267 399.106 62.16C400.119 62.6933 401.266 62.96 402.546 62.96C404.946 62.96 406.839 62.16 408.226 60.56C409.612 58.9067 410.599 56.6133 411.186 53.68C411.826 50.6933 412.146 47.1467 412.146 43.04C412.146 38.4533 411.852 34.8533 411.266 32.24C410.679 29.6267 409.879 27.76 408.866 26.64C407.852 25.52 406.626 24.96 405.186 24.96C403.266 24.96 401.506 25.7067 399.906 27.2C398.359 28.6933 397.479 30.8267 397.266 33.6L396.866 30.8C397.826 27.76 399.452 25.4667 401.746 23.92C404.092 22.32 406.812 21.52 409.906 21.52Z" stroke="#724D31" stroke-width="2" mask="url(#path-1-outside-1_1_652)"/>
<path d="M445.474 21.76V70.56C445.474 73.0667 446.114 74.72 447.394 75.52C448.674 76.3733 450.434 76.8 452.674 76.8V78.48C451.288 78.4267 449.368 78.3467 446.914 78.24C444.514 78.1867 441.954 78.16 439.234 78.16C437.261 78.16 435.314 78.1867 433.394 78.24C431.528 78.3467 430.114 78.4267 429.154 78.48V76.8C430.914 76.8 432.141 76.4267 432.834 75.68C433.581 74.9333 433.954 73.4933 433.954 71.36V31.36C433.954 28.96 433.581 27.2 432.834 26.08C432.088 24.9067 430.754 24.32 428.834 24.32V22.64C430.541 22.8 432.194 22.88 433.794 22.88C435.981 22.88 438.061 22.8 440.034 22.64C442.008 22.4267 443.821 22.1333 445.474 21.76ZM457.874 21.52C460.594 21.52 463.021 22.2667 465.154 23.76C467.288 25.2 468.994 27.4133 470.274 30.4C471.554 33.3333 472.194 37.0133 472.194 41.44C472.194 45.3333 471.741 48.7467 470.834 51.68C469.981 54.6133 468.728 57.0933 467.074 59.12C465.474 61.0933 463.528 62.5867 461.234 63.6C458.994 64.6133 456.461 65.12 453.634 65.12C451.554 65.12 449.661 64.7467 447.954 64C446.248 63.3067 444.941 62.2933 444.034 60.96L444.834 59.92C445.368 60.88 446.114 61.6267 447.074 62.16C448.088 62.6933 449.234 62.96 450.514 62.96C452.914 62.96 454.808 62.16 456.194 60.56C457.581 58.9067 458.568 56.6133 459.154 53.68C459.794 50.6933 460.114 47.1467 460.114 43.04C460.114 38.4533 459.821 34.8533 459.234 32.24C458.648 29.6267 457.848 27.76 456.834 26.64C455.821 25.52 454.594 24.96 453.154 24.96C451.234 24.96 449.474 25.7067 447.874 27.2C446.328 28.6933 445.448 30.8267 445.234 33.6L444.834 30.8C445.794 27.76 447.421 25.4667 449.714 23.92C452.061 22.32 454.781 21.52 457.874 21.52Z" stroke="#724D31" stroke-width="2" mask="url(#path-1-outside-1_1_652)"/>
<path d="M497.763 21.52C502.456 21.52 506.136 22.9067 508.803 25.68C511.47 28.4533 512.803 32.9867 512.803 39.28H486.483L486.323 37.76H502.723C502.776 35.1467 502.616 32.7467 502.243 30.56C501.87 28.32 501.283 26.5333 500.483 25.2C499.683 23.8667 498.616 23.2 497.283 23.2C495.416 23.2 493.816 24.3733 492.483 26.72C491.203 29.0667 490.43 32.96 490.163 38.4L490.403 38.88C490.35 39.52 490.296 40.1867 490.243 40.88C490.243 41.5733 490.243 42.2933 490.243 43.04C490.243 46.72 490.75 49.7067 491.763 52C492.83 54.2933 494.163 55.9733 495.763 57.04C497.363 58.0533 498.99 58.56 500.643 58.56C501.763 58.56 502.91 58.4 504.083 58.08C505.31 57.7067 506.536 57.0667 507.763 56.16C508.99 55.2 510.136 53.8667 511.203 52.16L512.643 52.64C512.003 54.6667 510.99 56.64 509.603 58.56C508.216 60.48 506.456 62.0533 504.323 63.28C502.19 64.5067 499.63 65.12 496.643 65.12C493.016 65.12 489.816 64.3467 487.043 62.8C484.27 61.2533 482.083 58.9067 480.483 55.76C478.936 52.6133 478.163 48.6133 478.163 43.76C478.163 38.8 478.99 34.6667 480.643 31.36C482.35 28.0533 484.67 25.6 487.603 24C490.59 22.3467 493.976 21.52 497.763 21.52Z" stroke="#724D31" stroke-width="2" mask="url(#path-1-outside-1_1_652)"/>
<path d="M546.727 21.52C548.967 21.52 550.78 21.8133 552.167 22.4C553.607 22.9333 554.727 23.68 555.527 24.64C556.38 25.6533 556.994 26.96 557.367 28.56C557.794 30.16 558.007 32.32 558.007 35.04V56.56C558.007 58.8 558.38 60.32 559.127 61.12C559.927 61.92 561.26 62.32 563.127 62.32V64C562.113 63.9467 560.593 63.8933 558.567 63.84C556.54 63.7333 554.54 63.68 552.567 63.68C550.54 63.68 548.54 63.7333 546.567 63.84C544.647 63.8933 543.18 63.9467 542.167 64V62.32C543.767 62.32 544.887 61.92 545.527 61.12C546.167 60.32 546.487 58.8 546.487 56.56V31.68C546.487 30.3467 546.354 29.2 546.087 28.24C545.82 27.2267 545.34 26.4533 544.647 25.92C543.954 25.3333 542.914 25.04 541.527 25.04C540.087 25.04 538.754 25.44 537.527 26.24C536.354 27.04 535.394 28.16 534.647 29.6C533.954 30.9867 533.607 32.56 533.607 34.32V56.56C533.607 58.8 533.927 60.32 534.567 61.12C535.26 61.92 536.38 62.32 537.927 62.32V64C536.967 63.9467 535.553 63.8933 533.687 63.84C531.873 63.7333 529.98 63.68 528.007 63.68C525.98 63.68 523.9 63.7333 521.767 63.84C519.634 63.8933 518.034 63.9467 516.967 64V62.32C518.834 62.32 520.14 61.92 520.887 61.12C521.687 60.32 522.087 58.8 522.087 56.56V31.36C522.087 28.96 521.714 27.2 520.967 26.08C520.274 24.9067 518.94 24.32 516.967 24.32V22.64C518.674 22.8 520.327 22.88 521.927 22.88C524.167 22.88 526.247 22.8 528.167 22.64C530.14 22.4267 531.954 22.1333 533.607 21.76V28.96C534.94 26.24 536.754 24.32 539.047 23.2C541.34 22.08 543.9 21.52 546.727 21.52Z" stroke="#724D31" stroke-width="2" mask="url(#path-1-outside-1_1_652)"/>
<path d="M576.508 2C578.748 2 580.507 2.56001 581.787 3.68001C583.121 4.74667 583.787 6.24001 583.787 8.16001C583.787 10.08 583.121 11.6 581.787 12.72C580.507 13.7867 578.748 14.32 576.508 14.32C574.268 14.32 572.481 13.7867 571.147 12.72C569.867 11.6 569.227 10.08 569.227 8.16001C569.227 6.24001 569.867 4.74667 571.147 3.68001C572.481 2.56001 574.268 2 576.508 2ZM582.747 21.76V56.56C582.747 58.8 583.121 60.32 583.867 61.12C584.667 61.92 586.001 62.32 587.867 62.32V64C586.907 63.9467 585.414 63.8933 583.387 63.84C581.361 63.7333 579.307 63.68 577.227 63.68C575.147 63.68 573.041 63.7333 570.907 63.84C568.774 63.8933 567.174 63.9467 566.107 64V62.32C567.974 62.32 569.281 61.92 570.027 61.12C570.827 60.32 571.227 58.8 571.227 56.56V31.36C571.227 28.96 570.854 27.2 570.107 26.08C569.414 24.9067 568.081 24.32 566.107 24.32V22.64C567.814 22.8 569.468 22.88 571.068 22.88C573.308 22.88 575.387 22.8 577.307 22.64C579.281 22.4267 581.094 22.1333 582.747 21.76Z" stroke="#724D31" stroke-width="2" mask="url(#path-1-outside-1_1_652)"/>
<path d="M621.102 21.52C623.342 21.52 625.155 21.8133 626.542 22.4C627.982 22.9333 629.102 23.68 629.902 24.64C630.755 25.6533 631.369 26.96 631.742 28.56C632.169 30.16 632.382 32.32 632.382 35.04V56.56C632.382 58.8 632.755 60.32 633.502 61.12C634.302 61.92 635.635 62.32 637.502 62.32V64C636.488 63.9467 634.968 63.8933 632.942 63.84C630.915 63.7333 628.915 63.68 626.942 63.68C624.915 63.68 622.915 63.7333 620.942 63.84C619.022 63.8933 617.555 63.9467 616.542 64V62.32C618.142 62.32 619.262 61.92 619.902 61.12C620.542 60.32 620.862 58.8 620.862 56.56V31.68C620.862 30.3467 620.729 29.2 620.462 28.24C620.195 27.2267 619.715 26.4533 619.022 25.92C618.329 25.3333 617.289 25.04 615.902 25.04C614.462 25.04 613.129 25.44 611.902 26.24C610.729 27.04 609.769 28.16 609.022 29.6C608.329 30.9867 607.982 32.56 607.982 34.32V56.56C607.982 58.8 608.302 60.32 608.942 61.12C609.635 61.92 610.755 62.32 612.302 62.32V64C611.342 63.9467 609.928 63.8933 608.062 63.84C606.248 63.7333 604.355 63.68 602.382 63.68C600.355 63.68 598.275 63.7333 596.142 63.84C594.009 63.8933 592.409 63.9467 591.342 64V62.32C593.209 62.32 594.515 61.92 595.262 61.12C596.062 60.32 596.462 58.8 596.462 56.56V31.36C596.462 28.96 596.089 27.2 595.342 26.08C594.649 24.9067 593.315 24.32 591.342 24.32V22.64C593.049 22.8 594.702 22.88 596.302 22.88C598.542 22.88 600.622 22.8 602.542 22.64C604.515 22.4267 606.329 22.1333 607.982 21.76V28.96C609.315 26.24 611.129 24.32 613.422 23.2C615.715 22.08 618.275 21.52 621.102 21.52Z" stroke="#724D31" stroke-width="2" mask="url(#path-1-outside-1_1_652)"/>
<path d="M655.456 79.04C652.149 79.04 649.189 78.7467 646.576 78.16C644.016 77.6267 641.989 76.7733 640.496 75.6C639.056 74.48 638.336 73.0933 638.336 71.44C638.336 69.7867 639.082 68.2933 640.576 66.96C642.069 65.68 644.282 64.6667 647.216 63.92L647.936 65.2C646.922 66 646.176 66.8533 645.696 67.76C645.269 68.72 645.056 69.7067 645.056 70.72C645.056 72.96 646.069 74.6667 648.096 75.84C650.176 77.0667 652.976 77.68 656.496 77.68C658.896 77.68 661.029 77.36 662.896 76.72C664.816 76.08 666.309 75.12 667.376 73.84C668.496 72.56 669.056 70.9867 669.056 69.12C669.056 67.52 668.469 66.16 667.296 65.04C666.122 63.9733 663.776 63.44 660.256 63.44H655.296C653.109 63.44 651.189 63.2 649.536 62.72C647.936 62.24 646.682 61.4933 645.776 60.48C644.869 59.4133 644.416 58.08 644.416 56.48C644.416 54.24 645.296 52.2667 647.056 50.56C648.816 48.8533 651.429 47.2533 654.896 45.76L655.696 46.4C654.682 47.04 653.722 47.7333 652.816 48.48C651.962 49.1733 651.536 50.08 651.536 51.2C651.536 52.9067 652.602 53.76 654.736 53.76H663.456C666.389 53.76 669.002 54.1067 671.296 54.8C673.642 55.4933 675.482 56.64 676.816 58.24C678.202 59.7867 678.896 61.8133 678.896 64.32C678.896 66.9333 678.042 69.36 676.336 71.6C674.682 73.84 672.122 75.6267 668.656 76.96C665.189 78.3467 660.789 79.04 655.456 79.04ZM656.256 46.96C653.216 46.96 650.496 46.5067 648.096 45.6C645.696 44.6933 643.802 43.3067 642.416 41.44C641.029 39.5733 640.336 37.1733 640.336 34.24C640.336 31.3067 641.029 28.9067 642.416 27.04C643.802 25.12 645.696 23.7333 648.096 22.88C650.496 21.9733 653.216 21.52 656.256 21.52C659.296 21.52 662.016 21.9733 664.416 22.88C666.816 23.7333 668.709 25.12 670.096 27.04C671.482 28.9067 672.176 31.3067 672.176 34.24C672.176 37.1733 671.482 39.5733 670.096 41.44C668.709 43.3067 666.816 44.6933 664.416 45.6C662.016 46.5067 659.296 46.96 656.256 46.96ZM656.256 45.52C657.696 45.52 658.816 44.72 659.616 43.12C660.416 41.4667 660.816 38.5067 660.816 34.24C660.816 29.9733 660.416 27.04 659.616 25.44C658.816 23.7867 657.696 22.96 656.256 22.96C654.869 22.96 653.749 23.7867 652.896 25.44C652.096 27.04 651.696 29.9733 651.696 34.24C651.696 38.5067 652.096 41.4667 652.896 43.12C653.749 44.72 654.869 45.52 656.256 45.52ZM668.736 28.4L667.136 27.84C667.936 25.76 669.216 24.0267 670.976 22.64C672.789 21.2533 674.736 20.56 676.816 20.56C678.522 20.56 679.802 21.04 680.656 22C681.562 22.9067 682.016 24.1067 682.016 25.6C682.016 27.2 681.589 28.4 680.736 29.2C679.882 29.9467 678.922 30.32 677.856 30.32C676.949 30.32 676.096 30 675.296 29.36C674.549 28.72 674.122 27.76 674.016 26.48C673.909 25.1467 674.362 23.44 675.376 21.36L675.936 21.84C673.909 22.5867 672.389 23.4667 671.376 24.48C670.362 25.44 669.482 26.7467 668.736 28.4Z" stroke="#724D31" stroke-width="2" mask="url(#path-1-outside-1_1_652)"/>
<path d="M699.369 21.52C701.609 21.52 703.556 21.8133 705.209 22.4C706.916 22.9333 708.143 23.4667 708.889 24C710.703 25.2267 711.823 24.4267 712.249 21.6H713.929C713.823 23.0933 713.743 24.9333 713.689 27.12C713.636 29.2533 713.609 32.1067 713.609 35.68H711.929C711.663 33.7067 711.156 31.76 710.409 29.84C709.663 27.92 708.569 26.3467 707.129 25.12C705.743 23.8933 703.929 23.28 701.689 23.28C700.143 23.28 698.836 23.7333 697.769 24.64C696.703 25.4933 696.169 26.7467 696.169 28.4C696.169 30 696.649 31.4133 697.609 32.64C698.569 33.8133 699.796 34.96 701.289 36.08C702.836 37.1467 704.436 38.2933 706.089 39.52C707.849 40.8533 709.449 42.1867 710.889 43.52C712.329 44.8 713.476 46.2133 714.329 47.76C715.183 49.3067 715.609 51.1467 715.609 53.28C715.609 55.68 714.916 57.7867 713.529 59.6C712.143 61.36 710.303 62.72 708.009 63.68C705.769 64.64 703.263 65.12 700.489 65.12C698.889 65.12 697.449 64.96 696.169 64.64C694.943 64.32 693.876 63.92 692.969 63.44C692.276 63.12 691.609 62.8267 690.969 62.56C690.383 62.24 689.823 61.9733 689.289 61.76C688.756 61.6 688.276 61.7867 687.849 62.32C687.476 62.8533 687.183 63.6 686.969 64.56H685.289C685.396 62.8533 685.476 60.7733 685.529 58.32C685.583 55.8667 685.609 52.6133 685.609 48.56H687.289C687.609 51.44 688.196 54 689.049 56.24C689.903 58.4267 691.049 60.16 692.489 61.44C693.983 62.6667 695.849 63.28 698.089 63.28C698.996 63.28 699.876 63.0933 700.729 62.72C701.583 62.3467 702.276 61.7333 702.809 60.88C703.396 60.0267 703.689 58.9333 703.689 57.6C703.689 55.2533 702.916 53.3067 701.369 51.76C699.876 50.2133 697.956 48.5333 695.609 46.72C693.903 45.3333 692.276 43.9733 690.729 42.64C689.236 41.2533 688.009 39.76 687.049 38.16C686.089 36.5067 685.609 34.64 685.609 32.56C685.609 30.16 686.249 28.1333 687.529 26.48C688.809 24.8267 690.489 23.6 692.569 22.8C694.703 21.9467 696.969 21.52 699.369 21.52Z" stroke="#724D31" stroke-width="2" mask="url(#path-1-outside-1_1_652)"/>
</svg>
